<?xml version="1.0"?><svg id="Layer_2" xmlns="http://www.w3.org/2000/svg" version="1.1" viewBox="0 0 304.5 37.5" xmlns:c2pa="http://c2pa.org/manifest">
  
  <g id="_ÎÓÈ_1">
    <g>
      <path d="M0,19.7c0-2.7.4-5.1,1.4-7.3.9-2.2,2.2-4.1,3.8-5.6,1.6-1.5,3.5-2.7,5.8-3.5,2.2-.8,4.6-1.2,7.3-1.2s5.1.4,7.3,1.2c2.2.8,4.1,2,5.8,3.5,1.6,1.5,2.9,3.4,3.8,5.6.9,2.2,1.4,4.6,1.4,7.3s-.5,5.1-1.4,7.3-2.2,4.1-3.8,5.6c-1.6,1.5-3.5,2.7-5.8,3.5-2.2.8-4.6,1.2-7.3,1.2s-5.1-.4-7.3-1.2-4.2-2-5.8-3.5-2.9-3.4-3.8-5.6S0,22.4,0,19.7ZM7.7,19.7c0,1.6.2,3,.7,4.4.5,1.3,1.2,2.5,2.1,3.4.9,1,2,1.7,3.3,2.3,1.3.5,2.7.8,4.3.8s3-.3,4.3-.8c1.3-.5,2.4-1.3,3.3-2.3.9-1,1.6-2.1,2.1-3.4.5-1.3.7-2.8.7-4.4s-.2-3-.7-4.3c-.5-1.3-1.2-2.5-2.1-3.4-.9-1-2-1.7-3.3-2.3s-2.7-.8-4.3-.8-3,.3-4.3.8c-1.3.5-2.4,1.3-3.3,2.3-.9,1-1.6,2.1-2.1,3.4s-.7,2.8-.7,4.3Z" fill="#10143a"></path>
      <path d="M43,19.1h-4.7v-5.7h4.7v-4.1c0-1.3.1-2.5.3-3.6.2-1.1.7-2.1,1.3-3,.6-.9,1.5-1.5,2.7-2C48.6.2,50.1,0,52.1,0s1.4,0,2.1.1c.7,0,1.4.2,2,.3l-.3,6.1c-.4-.2-.8-.3-1.1-.4s-.8-.1-1.2-.1c-1.1,0-2,.2-2.6.7-.6.5-.9,1.5-.9,3v3.7h5.3v5.7h-5.3v17.4h-7.2v-17.4Z" fill="#10143a"></path>
      <path d="M73.5,2.9h22.9v6.9h-15.5v6.3h14.6v6.9h-14.6v6.9h16.3v6.9h-23.8V2.9h0Z" fill="#10143a"></path>
      <path d="M108.5,24.2l-7.7-10.8h8.4l4.1,6.3,3.9-6.3h8l-7.5,10.8,8.9,12.4h-8.4l-5.1-7.7-5.4,7.7h-8.3s9.2-12.4,9.2-12.4Z" fill="#10143a"></path>
      <path d="M144.5,20.9c-.4-.5-.8-.9-1.5-1.3s-1.3-.5-2.1-.5c-1.8,0-3.2.5-4.2,1.6s-1.5,2.5-1.5,4.2.5,3.2,1.5,4.2,2.4,1.6,4.2,1.6,1.5-.2,2.1-.5,1.1-.8,1.5-1.2l4.7,5c-1.1,1.1-2.4,2-3.9,2.4s-2.9.7-4.3.7-3.4-.3-5-.9c-1.6-.6-2.9-1.4-4.1-2.5s-2.1-2.3-2.7-3.8c-.7-1.5-1-3.2-1-5s.3-3.5,1-5,1.6-2.8,2.7-3.8c1.2-1.1,2.5-1.9,4.1-2.4s3.2-.9,5-.9,2.8.2,4.3.7,2.8,1.3,3.9,2.4l-4.7,5h0Z" fill="#10143a"></path>
      <path d="M173.7,32.6c-1.1,1.5-2.6,2.6-4.3,3.4s-3.6,1.2-5.4,1.2-3.4-.3-5-.9c-1.6-.6-2.9-1.4-4.1-2.5s-2.1-2.3-2.7-3.8c-.7-1.5-1-3.2-1-5s.3-3.5,1-5,1.6-2.8,2.7-3.8c1.2-1.1,2.5-1.9,4.1-2.4s3.2-.9,5-.9,3.1.3,4.5.9,2.5,1.4,3.4,2.4c.9,1.1,1.7,2.3,2.2,3.8.5,1.5.8,3.2.8,5v2.2h-16.6c.3,1.4.9,2.5,1.9,3.3s2.1,1.2,3.5,1.2,2.2-.3,3-.8c.8-.5,1.5-1.2,2.1-2l5,3.7h0ZM167.6,22.4c0-1.2-.4-2.2-1.2-3.1-.8-.9-1.9-1.3-3.2-1.3s-1.5.1-2.1.4c-.6.2-1.1.6-1.6,1-.4.4-.8.9-1,1.4-.2.5-.4,1.1-.4,1.6h9.4Z" fill="#10143a"></path>
      <path d="M179.2.6h7.1v36h-7.1V.6Z" fill="#10143a"></path>
      <path d="M191.6.6h7.1v36h-7.1V.6Z" fill="#10143a"></path>
      <path d="M225.8,32.6c-1.1,1.5-2.6,2.6-4.3,3.4s-3.6,1.2-5.4,1.2-3.4-.3-5-.9-2.9-1.4-4.1-2.5-2.1-2.3-2.7-3.8c-.7-1.5-1-3.2-1-5s.3-3.5,1-5,1.6-2.8,2.7-3.8c1.2-1.1,2.5-1.9,4.1-2.4s3.2-.9,5-.9,3.1.3,4.5.9,2.5,1.4,3.4,2.4c.9,1.1,1.7,2.3,2.2,3.8.5,1.5.8,3.2.8,5v2.2h-16.6c.3,1.4.9,2.5,1.9,3.3s2.1,1.2,3.5,1.2,2.2-.3,3-.8c.8-.5,1.5-1.2,2.1-2l5,3.7h0ZM219.7,22.4c0-1.2-.4-2.2-1.2-3.1-.8-.9-1.9-1.3-3.2-1.3s-1.5.1-2.1.4c-.6.2-1.1.6-1.6,1-.4.4-.8.9-1,1.4-.2.5-.4,1.1-.4,1.6h9.4Z" fill="#10143a"></path>
      <path d="M231.2,13.4h6.9v3.1h.1c.2-.4.5-.9.9-1.3s.9-.8,1.5-1.2c.6-.4,1.2-.6,1.9-.9.7-.2,1.5-.3,2.4-.3,1.8,0,3.3.3,4.4.8,1.1.6,2,1.3,2.6,2.3.6,1,1,2.1,1.3,3.5.2,1.3.3,2.8.3,4.3v12.8h-7.1v-11.3c0-.7,0-1.4,0-2.1s-.2-1.4-.4-2c-.2-.6-.6-1.1-1.1-1.5-.5-.4-1.2-.6-2.1-.6s-1.7.2-2.2.5-1,.8-1.3,1.3c-.3.6-.5,1.2-.6,1.9-.1.7-.1,1.4-.1,2.2v11.5h-7.1V13.4h0Z" fill="#10143a"></path>
      <path d="M274.2,20.9c-.4-.5-.8-.9-1.5-1.3s-1.3-.5-2-.5c-1.8,0-3.2.5-4.2,1.6s-1.5,2.5-1.5,4.2.5,3.2,1.5,4.2,2.4,1.6,4.2,1.6,1.5-.2,2-.5c.6-.4,1.1-.8,1.5-1.2l4.7,5c-1.1,1.1-2.4,2-3.9,2.4-1.5.5-3,.7-4.3.7s-3.5-.3-5-.9-2.9-1.4-4.1-2.5-2.1-2.3-2.7-3.8c-.7-1.5-1-3.2-1-5s.3-3.5,1-5,1.6-2.8,2.7-3.8c1.2-1.1,2.5-1.9,4.1-2.4s3.2-.9,5-.9,2.8.2,4.3.7,2.8,1.3,3.9,2.4l-4.7,5h0Z" fill="#10143a"></path>
      <path d="M303.5,32.6c-1.1,1.5-2.6,2.6-4.3,3.4s-3.6,1.2-5.4,1.2-3.5-.3-5-.9-2.9-1.4-4.1-2.5-2.1-2.3-2.7-3.8c-.7-1.5-1-3.2-1-5s.3-3.5,1-5,1.6-2.8,2.7-3.8c1.2-1.1,2.5-1.9,4.1-2.4s3.2-.9,5-.9,3.1.3,4.5.9,2.5,1.4,3.4,2.4,1.7,2.3,2.2,3.8c.5,1.5.8,3.2.8,5v2.2h-16.6c.3,1.4.9,2.5,1.9,3.3,1,.8,2.1,1.2,3.5,1.2s2.2-.3,3-.8c.8-.5,1.5-1.2,2.1-2l5,3.7h0ZM297.4,22.4c0-1.2-.4-2.2-1.2-3.1-.8-.9-1.9-1.3-3.2-1.3s-1.5.1-2.1.4c-.6.2-1.1.6-1.5,1s-.8.9-1,1.4c-.2.5-.4,1.1-.4,1.6h9.4Z" fill="#10143a"></path>
    </g>
  </g>
  <metadata><c2pa:manifest>AAAWgmp1bWIAAAAeanVtZGMycGEAEQAQgAAAqgA4m3EDYzJwYQAAABZcanVtYgAAAEdqdW1kYzJtYQARABCAAACqADibcQN1cm46YzJwYTo0MzBjNTJkMS0yYjc4LTQ2NjktYmJmOC1jOTUxNjNhNzMwMjMAAAADl2p1bWIAAAApanVtZGMyYXMAEQAQgAAAqgA4m3EDYzJwYS5hc3NlcnRpb25zAAAAALxqdW1iAAAARGp1bWRjYm9yABEAEIAAAKoAOJtxE2MycGEuaW5ncmVkaWVudC52MwAAAAAYYzJzaOWY2i8edx+SfOhWuG1He8gAAABwY2JvcqNpZGM6Zm9ybWF0bWltYWdlL3N2Zyt4bWxqaW5zdGFuY2VJRHgseG1wOmlpZDo4MGY1ZTk5OC00MzI5LTRmZmItYjVmZC01YjZiNGM4Zjc3ZWNscmVsYXRpb25zaGlwaHBhcmVudE9mAAAB4mp1bWIAAABBanVtZGNib3IAEQAQgAAAqgA4m3ETYzJwYS5hY3Rpb25zLnYyAAAAABhjMnNowY/iOexGGn69BMjNtd1uBgAAAZljYm9yomdhY3Rpb25zgqJmYWN0aW9ua2MycGEub3BlbmVkanBhcmFtZXRlcnOha2luZ3JlZGllbnRzgaJjdXJseC1zZWxmI2p1bWJmPWMycGEuYXNzZXJ0aW9ucy9jMnBhLmluZ3JlZGllbnQudjNkaGFzaFggmsNwdi8m0AL4q8VCWekxmwE2i0/qNX69uyPRppzX2sCkZmFjdGlvbngdY29tLmFudGhyb3BpYy5jbGF1ZGUucHJvdmlkZWRqcGFyYW1ldGVyc6F4H2NvbS5hbnRocm9waWMub3JpZ2luLWNvbmZpZGVuY2VndW5rbm93bmtkZXNjcmlwdGlvbnhmQ2xhdWRlIHByb3ZpZGVkIHRoaXMgZmlsZSBhdCB0aGUgcmVxdWVzdCBvZiBhIHVzZXIgYW5kIG1heSBoYXZlIGNyZWF0ZWQgb3IgbW9kaWZpZWQgdGhlIGZpbGUgY29udGVudHMubXNvZnR3YXJlQWdlbnShZG5hbWVmQ2xhdWRlcmFsbEFjdGlvbnNJbmNsdWRlZPUAAADIanVtYgAAAEBqdW1kY2JvcgARABCAAACqADibcRNjMnBhLmhhc2guZGF0YQAAAAAYYzJzaDt+DxAfFhhfedZPXPH4AxQAAACAY2JvcqVjYWxnZnNoYTI1NmNwYWRMAAAAAAAAAAAAAAAAZGhhc2hYIJaLjn7BqP6G4Q4VzBpRfwsxUEM7xYVXukrcPMvLPrzYZG5hbWVuanVtYmYgbWFuaWZlc3RqZXhjbHVzaW9uc4GiZXN0YXJ0GRB8Zmxlbmd0aBkeBAAAAj5qdW1iAAAAJ2p1bWRjMmNsABEAEIAAAKoAOJtxA2MycGEuY2xhaW0udjIAAAACD2Nib3KlY2FsZ2ZzaGEyNTZpc2lnbmF0dXJleE1zZWxmI2p1bWJmPS9jMnBhL3VybjpjMnBhOjQzMGM1MmQxLTJiNzgtNDY2OS1iYmY4LWM5NTE2M2E3MzAyMy9jMnBhLnNpZ25hdHVyZWppbnN0YW5jZUlEeCx4bXA6aWlkOjVlMDhkMTBjLTllZjUtNDFmOS1hZGYyLWY1Y2IzODA0MGViN3JjcmVhdGVkX2Fzc2VydGlvbnODomN1cmx4LXNlbGYjanVtYmY9YzJwYS5hc3NlcnRpb25zL2MycGEuaW5ncmVkaWVudC52M2RoYXNoWCCaw3B2LybQAvirxUJZ6TGbATaLT+o1fr27I9GmnNfawKJjdXJseCpzZWxmI2p1bWJmPWMycGEuYXNzZXJ0aW9ucy9jMnBhLmFjdGlvbnMudjJkaGFzaFggiaKdP7hb8VHdyZAZBdCaCkAKf7gd2AxXSWPjvhT9T7yiY3VybHgpc2VsZiNqdW1iZj1jMnBhLmFzc2VydGlvbnMvYzJwYS5oYXNoLmRhdGFkaGFzaFggp4zUKT1g3u2RYpYrx4GibTFJYLon0b9Ee6ah07A6rXx0Y2xhaW1fZ2VuZXJhdG9yX2luZm+jZG5hbWVvQW50aHJvcGljIEZpbGVzZ3ZlcnNpb25lMS4wLjBrc3BlY1ZlcnNpb25lMi40LjAAABA4anVtYgAAAChqdW1kYzJjcwARABCAAACqADibcQNjMnBhLnNpZ25hdHVyZQAAABAIY2JvctKEWQISogEmGCFZAgowggIGMIIBjaADAgECAhRA5aAK7sI50L64g/oGQgU9Z1UTADAKBggqhkjOPQQDAzBJMRcwFQYDVQQKEw5BbnRocm9waWMsIFBCQzEuMCwGA1UEAxMlQW50aHJvcGljIENvbnRlbnQgQ3JlZGVudGlhbHMgUm9vdCBDQTAeFw0yNjA4MDcxODQzNTZaFw0yODA4MDYxOTQzNTZaMEQxFzAVBgNVBAoTDkFudGhyb3BpYywgUEJDMSkwJwYDVQQDEyBBbnRocm9waWMgQ2xhdWRlIENvbnRlbnQgU2lnbmluZzBZMBMGByqGSM49AgEGCCqGSM49AwEHA0IABJh6CmvLUBgFFNU0vUKlOVtE6djd17L5SuwX0LemFisBM3dkd/3cyjxFA3Qo5S46fX0/ihY0VZ7mfb9KF703t5OjWDBWMA4GA1UdDwEB/wQEAwIHgDAVBgNVHSUEDjAMBgorBgEEAYPoXgIBMAwGA1UdEwEB/wQCMAAwHwYDVR0jBBgwFoAUzlHiBIFOZFsj+OPEz5o+nMHXXMIwCgYIKoZIzj0EAwMDZwAwZAIwMXMdFJ4BetLLVY7ORuE9noqbbAZOZn/aArXyTwFAZfKrPzxF2vPoJNf1+UCdg1XGAjBwX1zd9WGqYkqmL5SFqw1QySjr1zJfpJM9+1rdDwSPLMOPOjKuiXjoU/pUUeG9RwmhY3BhZFkNngAAAAAAAAAAAAAAAAAAAAAAAAAAAAAAAAAAAAAAAAAAAAAAAAAAAAAAAAAAAAAAAAAAAAAAAAAAAAAAAAAAAAAAAAAAAAAAAAAAAAAAAAAAAAAAAAAAAAAAAAAAAAAAAAAAAAAAAAAAAAAAAAAAAAAAAAAAAAAAAAAAAAAAAAAAAAAAAAAAAAAAAAAAAAAAAAAAAAAAAAAAAAAAAAAAAAAAAAAAAAAAAAAAAAAAAAAAAAAAAAAAAAAAAAAAAAAAAAAAAAAAAAAAAAAAAAAAAAAAAAAAAAAAAAAAAAAAAAAAAAAAAAAAAAAAAAAAAAAAAAAAAAAAAAAAAAAAAAAAAAAAAAAAAAAAAAAAAAAAAAAAAAAAAAAAAAAAAAAAAAAAAAAAAAAAAAAAAAAAAAAAAAAAAAAAAAAAAAAAAAAAAAAAAAAAAAAAAAAAAAAAAAAAAAAAAAAAAAAAAAAAAAAAAAAAAAAAAAAAAAAAAAAAAAAAAAAAAAAAAAAAAAAAAAAAAAAAAAAAAAAAAAAAAAAAAAAAAAAAAAAAAAAAAAAAAAAAAAAAAAAAAAAAAAAAAAAAAAAAAAAAAAAAAAAAAAAAAAAAAAAAAAAAAAAAAAAAAAAAAAAAAAAAAAAAAAAAAAAAAAAAAAAAAAAAAAAAAAAAAAAAAAAAAAAAAAAAAAAAAAAAAAAAAAAAAAAAAAAAAAAAAAAAAAAAAAAAAAAAAAAAAAAAAAAAAAAAAAAAAAAAAAAAAAAAAAAAAAAAAAAAAAAAAAAAAAAAAAAAAAAAAAAAAAAAAAAAAAAAAAAAAAAAAAAAAAAAAAAAAAAAAAAAAAAAAAAAAAAAAAAAAAAAAAAAAAAAAAAAAAAAAAAAAAAAAAAAAAAAAAAAAAAAAAAAAAAAAAAAAAAAAAAAAAAAAAAAAAAAAAAAAAAAAAAAAAAAAAAAAAAAAAAAAAAAAAAAAAAAAAAAAAAAAAAAAAAAAAAAAAAAAAAAAAAAAAAAAAAAAAAAAAAAAAAAAAAAAAAAAAAAAAAAAAAAAAAAAAAAAAAAAAAAAAAAAAAAAAAAAAAAAAAAAAAAAAAAAAAAAAAAAAAAAAAAAAAAAAAAAAAAAAAAAAAAAAAAAAAAAAAAAAAAAAAAAAAAAAAAAAAAAAAAAAAAAAAAAAAAAAAAAAAAAAAAAAAAAAAAAAAAAAAAAAAAAAAAAAAAAAAAAAAAAAAAAAAAAAAAAAAAAAAAAAAAAAAAAAAAAAAAAAAAAAAAAAAAAAAAAAAAAAAAAAAAAAAAAAAAAAAAAAAAAAAAAAAAAAAAAAAAAAAAAAAAAAAAAAAAAAAAAAAAAAAAAAAAAAAAAAAAAAAAAAAAAAAAAAAAAAAAAAAAAAAAAAAAAAAAAAAAAAAAAAAAAAAAAAAAAAAAAAAAAAAAAAAAAAAAAAAAAAAAAAAAAAAAAAAAAAAAAAAAAAAAAAAAAAAAAAAAAAAAAAAAAAAAAAAAAAAAAAAAAAAAAAAAAAAAAAAAAAAAAAAAAAAAAAAAAAAAAAAAAAAAAAAAAAAAAAAAAAAAAAAAAAAAAAAAAAAAAAAAAAAAAAAAAAAAAAAAAAAAAAAAAAAAAAAAAAAAAAAAAAAAAAAAAAAAAAAAAAAAAAAAAAAAAAAAAAAAAAAAAAAAAAAAAAAAAAAAAAAAAAAAAAAAAAAAAAAAAAAAAAAAAAAAAAAAAAAAAAAAAAAAAAAAAAAAAAAAAAAAAAAAAAAAAAAAAAAAAAAAAAAAAAAAAAAAAAAAAAAAAAAAAAAAAAAAAAAAAAAAAAAAAAAAAAAAAAAAAAAAAAAAAAAAAAAAAAAAAAAAAAAAAAAAAAAAAAAAAAAAAAAAAAAAAAAAAAAAAAAAAAAAAAAAAAAAAAAAAAAAAAAAAAAAAAAAAAAAAAAAAAAAAAAAAAAAAAAAAAAAAAAAAAAAAAAAAAAAAAAAAAAAAAAAAAAAAAAAAAAAAAAAAAAAAAAAAAAAAAAAAAAAAAAAAAAAAAAAAAAAAAAAAAAAAAAAAAAAAAAAAAAAAAAAAAAAAAAAAAAAAAAAAAAAAAAAAAAAAAAAAAAAAAAAAAAAAAAAAAAAAAAAAAAAAAAAAAAAAAAAAAAAAAAAAAAAAAAAAAAAAAAAAAAAAAAAAAAAAAAAAAAAAAAAAAAAAAAAAAAAAAAAAAAAAAAAAAAAAAAAAAAAAAAAAAAAAAAAAAAAAAAAAAAAAAAAAAAAAAAAAAAAAAAAAAAAAAAAAAAAAAAAAAAAAAAAAAAAAAAAAAAAAAAAAAAAAAAAAAAAAAAAAAAAAAAAAAAAAAAAAAAAAAAAAAAAAAAAAAAAAAAAAAAAAAAAAAAAAAAAAAAAAAAAAAAAAAAAAAAAAAAAAAAAAAAAAAAAAAAAAAAAAAAAAAAAAAAAAAAAAAAAAAAAAAAAAAAAAAAAAAAAAAAAAAAAAAAAAAAAAAAAAAAAAAAAAAAAAAAAAAAAAAAAAAAAAAAAAAAAAAAAAAAAAAAAAAAAAAAAAAAAAAAAAAAAAAAAAAAAAAAAAAAAAAAAAAAAAAAAAAAAAAAAAAAAAAAAAAAAAAAAAAAAAAAAAAAAAAAAAAAAAAAAAAAAAAAAAAAAAAAAAAAAAAAAAAAAAAAAAAAAAAAAAAAAAAAAAAAAAAAAAAAAAAAAAAAAAAAAAAAAAAAAAAAAAAAAAAAAAAAAAAAAAAAAAAAAAAAAAAAAAAAAAAAAAAAAAAAAAAAAAAAAAAAAAAAAAAAAAAAAAAAAAAAAAAAAAAAAAAAAAAAAAAAAAAAAAAAAAAAAAAAAAAAAAAAAAAAAAAAAAAAAAAAAAAAAAAAAAAAAAAAAAAAAAAAAAAAAAAAAAAAAAAAAAAAAAAAAAAAAAAAAAAAAAAAAAAAAAAAAAAAAAAAAAAAAAAAAAAAAAAAAAAAAAAAAAAAAAAAAAAAAAAAAAAAAAAAAAAAAAAAAAAAAAAAAAAAAAAAAAAAAAAAAAAAAAAAAAAAAAAAAAAAAAAAAAAAAAAAAAAAAAAAAAAAAAAAAAAAAAAAAAAAAAAAAAAAAAAAAAAAAAAAAAAAAAAAAAAAAAAAAAAAAAAAAAAAAAAAAAAAAAAAAAAAAAAAAAAAAAAAAAAAAAAAAAAAAAAAAAAAAAAAAAAAAAAAAAAAAAAAAAAAAAAAAAAAAAAAAAAAAAAAAAAAAAAAAAAAAAAAAAAAAAAAAAAAAAAAAAAAAAAAAAAAAAAAAAAAAAAAAAAAAAAAAAAAAAAAAAAAAAAAAAAAAAAAAAAAAAAAAAAAAAAAAAAAAAAAAAAAAAAAAAAAAAAAAAAAAAAAAAAAAAAAAAAAAAAAAAAAAAAAAAAAAAAAAAAAAAAAAAAAAAAAAAAAAAAAAAAAAAAAAAAAAAAAAAAAAAAAAAAAAAAAAAAAAAAAAAAAAAAAAAAAAAAAAAAAAAAAAAAAAAAAAAAAAAAAAAAAAAAAAAAAAAAAAAAAAAAAAAAAAAAAAAAAAAAAAAAAAAAAAAAAAAAAAAAAAAAAAAAAAAAAAAAAAAAAAAAAAAAAAAAAAAAAAAAAAAAAAAAAAAAAAAAAAAAAAAAAAAAAAAAAAAAAAAAAAAAAAAAAAAAAAAAAAAAAAAAAAAAAAAAAAAAAAAAAAAAAAAAAAAAAAAAAAAAAAAAAAAAAAAAAAAAAAAAAAAAAAAAAAAAAAAAAAAAAAAAAAAAAAAAAAAAAAAAAAAAAAAAAAAAAAAAAAAAAAAAAAAAAAAAAAAAAAAAAAAAAAAAAAAAAAAAAAAAAAAAAAAAAAAAAAAAAAAAAAAAAAAAAAAAAAAAAAAAAAAAAAAAAAAAAAAAAAAAAAAAAAAAAAAAAAAAAAAAAAAAAAAAAAAAAAAAAAAAAAAAAAAAAAAAAAAAAAAAAAAAAAAAAAAAAAAAAAAAAAAAAAAAAAAAAAAAAAAAAAAAAAAAAAAAAAAAAAAAAAAAAAAAAAAAAAAAAAAAAAAAAAAAAAAAAAAAAAAAAAAAAAAAAAAAAAAAAAAAAAAAAAAAAAAAAAAAAAAAAAAAAAAAAAAAAAAAAAAAAAAAAAAAAAAAAAAAAAAAAAAAAAAAAAAAAAAAAAAAAAAAAAAAAAAAAAAAAAAAAAAAAAAAAAAAAAAAAAAAAAAAAAAAAAAAAAAAAAAAAAAAAAAAAAAAAAAAAAAAAAAAAAAAAAAAAAAAAAAAAAAAAAAAAAAAAAAAAAAAAAAAAAAAAAAAAAAAAAAAAAAAAAAAAAAAAAAAAAAAAAAAAAAAAAAAAAAAAAAAAAAAAAAAAAAAAAAAAAAAAAAAAAAAAAAAAAAAAAAAAAAAAAAAAAAAAAAAAAAAAAAAAAAAAAAAAAAAAAAAAAAAAAAAAAAAAAAAAAAAAAAAAAAAAAAAAAAAAAAAAAAAAAAAAAAAAAAAAAAAAAAAAAAAAAAAAAAAAAAAAAAAAAAAAAAAAAAAAAAAAAAAAAAAAAAAAAAAAAAAAAAAAAAAAAAAAAAAAAAAAAAAAAAAAAAAAAAAAAAAAAAAAAAAAAAAAAAAAAAAAAAAAAAAAAAAAAAAAAAAAAAAAAAAAAAAAAAAAAAAAAAAAAAAAAAAAAAAAAAAAAAAAAAAAAAAAAAAAAAAAAAAAAAAAAAAAAAAAAAAAAAAAAAAAAAAAAAAAAAPZYQMl6myeuCd8XTrGbeDxNS6omH7ALMr8s+0gz2LvxoPcj6AB2CXM2ePZJQZLh/hJbVcn0NBVqb3h8OgD4cOgV94Q=</c2pa:manifest>
    
  </metadata>
  <metadata>
    
    
  </metadata>
</svg>