<?xml version="1.0"?><svg id="Layer_1" xmlns="http://www.w3.org/2000/svg" version="1.1" viewBox="0 0 333 333" xmlns:c2pa="http://c2pa.org/manifest">
  
  <path d="M212.1,254.5v19.6c0,2-1.6,3.6-3.6,3.6H60.6c-2,0-3.6-1.6-3.6-3.6V82.5c0-2,1.6-3.6,3.6-3.6h19.6v-19.6c0-2,1.6-3.6,3.6-3.6h123.9c1,0,1.9.4,2.5,1l24,24c.7.7,1,1.6,1,2.5v46.5c1.8.8,3.5,1.6,5.2,2.6l7.5-3.3c1.4-.6,2.9-.3,4,.7l10.8,10.8c1,1,1.3,2.6.7,4l-3.3,7.5c2.1,3.7,3.7,7.6,4.8,11.7l7.6,2.9c1.4.5,2.3,1.9,2.3,3.3v15.3c0,1.5-.9,2.8-2.3,3.3,0,0-7.6,2.9-7.6,2.9-1.1,4.1-2.8,8-4.8,11.7l3.3,7.5c.6,1.4.3,2.9-.7,4l-10.8,10.8c-1,1-2.6,1.3-4,.7,0,0-7.5-3.3-7.5-3.3-1.7,1-3.4,1.8-5.2,2.6v25.4c0,2-1.6,3.6-3.6,3.6h-19.6ZM87.4,78.9h97.1c.9,0,1.9.4,2.5,1l24,24c.7.7,1,1.6,1,2.5v11.1h10.5c1.5,0,2.8.9,3.3,2.3l2.2,5.8v-38.7h-20.4c-2,0-3.6-1.6-3.6-3.6v-20.4h-116.8v16ZM204.9,118.4v-8.4h-20.4c-2,0-3.6-1.6-3.6-3.6v-20.4h-116.8v184.5h140.7v-33.7c-.4-.4-.8-.9-1-1.4l-2.9-7.6c-4.1-1.1-8-2.8-11.7-4.8l-7.5,3.3c-1.4.6-2.9.3-4-.7l-2.8-2.8h-84.3c-2,0-3.6-1.6-3.6-3.6s1.6-3.6,3.6-3.6h77.1l-.9-.9c-1-1-1.3-2.6-.7-4l3.3-7.5c-1.1-2-2.2-4.1-3-6.3h-75.8c-2,0-3.6-1.6-3.6-3.6s1.6-3.6,3.6-3.6h69.4l-3.1-1.2c-1.4-.5-2.3-1.9-2.3-3.3v-14.1h-64c-2,0-3.6-1.6-3.6-3.6s1.6-3.6,3.6-3.6h73.2c.5-.2.8-.3.8-.3,1.1-4.1,2.8-8,4.8-11.7l-2.9-6.6h-75.8c-2,0-3.6-1.6-3.6-3.6s1.6-3.6,3.6-3.6h78.5l8.5-8.5c1-1,2.6-1.3,4-.7l7.5,3.3c3.7-2.1,7.6-3.7,11.7-4.8l3-7.7c.2-.6.6-1,1-1.4h0ZM212.1,237.7v9.7h16v-17.7l-2.2,5.8c-.5,1.4-1.9,2.3-3.3,2.3h-10.5ZM199.9,102.8l-11.7-11.7v11.7h11.7ZM223.1,79.7l-11.7-11.7v11.7h11.7ZM222.8,131.7l-2.7-7.1h-10.4l-2.7,7.1c-.4,1.1-1.4,1.9-2.5,2.2-4.6,1.1-9,2.9-13.1,5.4-1,.6-2.3.7-3.3.2l-6.9-3.1-7.3,7.3,3.1,6.9c.5,1.1.4,2.3-.2,3.3-2.5,4.1-4.3,8.5-5.4,13.1-.3,1.1-1.1,2.1-2.2,2.5l-7.1,2.7v10.4l7.1,2.7c1.1.4,1.9,1.4,2.2,2.5,1.1,4.6,2.9,9,5.4,13.1.6,1,.7,2.3.2,3.3l-3.1,6.9,7.3,7.3,6.9-3.1c1.1-.5,2.3-.4,3.3.2,4,2.5,8.5,4.3,13.1,5.4,1.2.3,2.1,1.1,2.5,2.2l2.7,7.1h10.4l2.7-7.1c.4-1.1,1.4-1.9,2.5-2.2,4.6-1.1,9-2.9,13.1-5.4,1-.6,2.3-.7,3.3-.2l6.9,3.1,7.3-7.3-3.1-6.9c-.5-1.1-.4-2.3.2-3.3,2.5-4,4.3-8.5,5.4-13.1.3-1.1,1.1-2.1,2.2-2.5l7.1-2.7v-10.4l-7.1-2.7c-1.1-.4-1.9-1.4-2.2-2.5-1.1-4.6-2.9-9-5.4-13.1-.6-1-.7-2.2-.2-3.3l3.1-6.9-7.3-7.3-6.9,3.1c-1.1.5-2.3.4-3.3-.2-4-2.5-8.5-4.3-13.1-5.4-1.1-.3-2.1-1.1-2.5-2.2ZM214.9,147.3c16.7,0,30.3,13.5,30.3,30.2s-13.6,30.3-30.3,30.3-30.2-13.6-30.2-30.3,13.5-30.2,30.2-30.2ZM214.9,154.5c-12.8,0-23.1,10.3-23.1,23.1s10.3,23.1,23.1,23.1,23.1-10.3,23.1-23.1-10.3-23.1-23.1-23.1ZM200.9,178.7c-1.4-1.4-1.4-3.7,0-5.1s3.7-1.4,5.1,0l6,6,11.8-11.8c1.4-1.4,3.7-1.4,5.1,0,1.4,1.4,1.4,3.7,0,5.1l-14.3,14.3c-1.4,1.4-3.7,1.4-5.1,0l-8.6-8.6ZM90.8,248.5c-2,0-3.6-1.6-3.6-3.6s1.6-3.6,3.6-3.6h87.5c2,0,3.6,1.6,3.6,3.6s-1.6,3.6-3.6,3.6h-87.5ZM90.8,119.6c-2,0-3.6-1.6-3.6-3.6s1.6-3.6,3.6-3.6h62.8c2,0,3.6,1.6,3.6,3.6s-1.6,3.6-3.6,3.6h-62.8Z" fill="#ea4424" fill-rule="evenodd"></path>
  <metadata><c2pa:manifest>AAAWgmp1bWIAAAAeanVtZGMycGEAEQAQgAAAqgA4m3EDYzJwYQAAABZcanVtYgAAAEdqdW1kYzJtYQARABCAAACqADibcQN1cm46YzJwYTowZWE1MTFiNy1kYjNkLTQwMGUtYWRiZC05M2NmYzJiYTBkNjUAAAADl2p1bWIAAAApanVtZGMyYXMAEQAQgAAAqgA4m3EDYzJwYS5hc3NlcnRpb25zAAAAALxqdW1iAAAARGp1bWRjYm9yABEAEIAAAKoAOJtxE2MycGEuaW5ncmVkaWVudC52MwAAAAAYYzJzaLxbVEkKgV28T5Iu3u72u9gAAABwY2JvcqNpZGM6Zm9ybWF0bWltYWdlL3N2Zyt4bWxqaW5zdGFuY2VJRHgseG1wOmlpZDo4NDMyZDQ0Ni0yYWU1LTQxYjAtYTBiYi0yMjkzOTAyMDBjYjhscmVsYXRpb25zaGlwaHBhcmVudE9mAAAB4mp1bWIAAABBanVtZGNib3IAEQAQgAAAqgA4m3ETYzJwYS5hY3Rpb25zLnYyAAAAABhjMnNonIdo1BbIkTyLa7HSznSBJgAAAZljYm9yomdhY3Rpb25zgqJmYWN0aW9ua2MycGEub3BlbmVkanBhcmFtZXRlcnOha2luZ3JlZGllbnRzgaJjdXJseC1zZWxmI2p1bWJmPWMycGEuYXNzZXJ0aW9ucy9jMnBhLmluZ3JlZGllbnQudjNkaGFzaFggmle8ckqsGbHoFRg9zn0jVwmdNIYDwM/xpV5toW4KFkakZmFjdGlvbngdY29tLmFudGhyb3BpYy5jbGF1ZGUucHJvdmlkZWRqcGFyYW1ldGVyc6F4H2NvbS5hbnRocm9waWMub3JpZ2luLWNvbmZpZGVuY2VndW5rbm93bmtkZXNjcmlwdGlvbnhmQ2xhdWRlIHByb3ZpZGVkIHRoaXMgZmlsZSBhdCB0aGUgcmVxdWVzdCBvZiBhIHVzZXIgYW5kIG1heSBoYXZlIGNyZWF0ZWQgb3IgbW9kaWZpZWQgdGhlIGZpbGUgY29udGVudHMubXNvZnR3YXJlQWdlbnShZG5hbWVmQ2xhdWRlcmFsbEFjdGlvbnNJbmNsdWRlZPUAAADIanVtYgAAAEBqdW1kY2JvcgARABCAAACqADibcRNjMnBhLmhhc2guZGF0YQAAAAAYYzJzaBcqnO4y9fpwTsv3HS33M8YAAACAY2JvcqVjYWxnZnNoYTI1NmNwYWRMAAAAAAAAAAAAAAAAZGhhc2hYIOXUlOqAjQ5PLxHcQ9Krr5Wi610iTvriltEbjp8LMjPpZG5hbWVuanVtYmYgbWFuaWZlc3RqZXhjbHVzaW9uc4GiZXN0YXJ0GQsvZmxlbmd0aBkeBAAAAj5qdW1iAAAAJ2p1bWRjMmNsABEAEIAAAKoAOJtxA2MycGEuY2xhaW0udjIAAAACD2Nib3KlY2FsZ2ZzaGEyNTZpc2lnbmF0dXJleE1zZWxmI2p1bWJmPS9jMnBhL3VybjpjMnBhOjBlYTUxMWI3LWRiM2QtNDAwZS1hZGJkLTkzY2ZjMmJhMGQ2NS9jMnBhLnNpZ25hdHVyZWppbnN0YW5jZUlEeCx4bXA6aWlkOmU1MzMzYzY0LTIwYjQtNGE2Zi04MjVkLTg3NmEyOGU3MDY3YnJjcmVhdGVkX2Fzc2VydGlvbnODomN1cmx4LXNlbGYjanVtYmY9YzJwYS5hc3NlcnRpb25zL2MycGEuaW5ncmVkaWVudC52M2RoYXNoWCCaV7xySqwZsegVGD3OfSNXCZ00hgPAz/GlXm2hbgoWRqJjdXJseCpzZWxmI2p1bWJmPWMycGEuYXNzZXJ0aW9ucy9jMnBhLmFjdGlvbnMudjJkaGFzaFggf5pKJvCTQasyy65r7h8kzZ8W/g0MFlGEiyhgvLM5gHmiY3VybHgpc2VsZiNqdW1iZj1jMnBhLmFzc2VydGlvbnMvYzJwYS5oYXNoLmRhdGFkaGFzaFggwp4b0Cnp6ExasefMUQ8XCsmKiMdoQHQ1k7wUPy/8qWd0Y2xhaW1fZ2VuZXJhdG9yX2luZm+jZG5hbWVvQW50aHJvcGljIEZpbGVzZ3ZlcnNpb25lMS4wLjBrc3BlY1ZlcnNpb25lMi40LjAAABA4anVtYgAAAChqdW1kYzJjcwARABCAAACqADibcQNjMnBhLnNpZ25hdHVyZQAAABAIY2JvctKEWQISogEmGCFZAgowggIGMIIBjaADAgECAhRA5aAK7sI50L64g/oGQgU9Z1UTADAKBggqhkjOPQQDAzBJMRcwFQYDVQQKEw5BbnRocm9waWMsIFBCQzEuMCwGA1UEAxMlQW50aHJvcGljIENvbnRlbnQgQ3JlZGVudGlhbHMgUm9vdCBDQTAeFw0yNjA4MDcxODQzNTZaFw0yODA4MDYxOTQzNTZaMEQxFzAVBgNVBAoTDkFudGhyb3BpYywgUEJDMSkwJwYDVQQDEyBBbnRocm9waWMgQ2xhdWRlIENvbnRlbnQgU2lnbmluZzBZMBMGByqGSM49AgEGCCqGSM49AwEHA0IABJh6CmvLUBgFFNU0vUKlOVtE6djd17L5SuwX0LemFisBM3dkd/3cyjxFA3Qo5S46fX0/ihY0VZ7mfb9KF703t5OjWDBWMA4GA1UdDwEB/wQEAwIHgDAVBgNVHSUEDjAMBgorBgEEAYPoXgIBMAwGA1UdEwEB/wQCMAAwHwYDVR0jBBgwFoAUzlHiBIFOZFsj+OPEz5o+nMHXXMIwCgYIKoZIzj0EAwMDZwAwZAIwMXMdFJ4BetLLVY7ORuE9noqbbAZOZn/aArXyTwFAZfKrPzxF2vPoJNf1+UCdg1XGAjBwX1zd9WGqYkqmL5SFqw1QySjr1zJfpJM9+1rdDwSPLMOPOjKuiXjoU/pUUeG9RwmhY3BhZFkNngAAAAAAAAAAAAAAAAAAAAAAAAAAAAAAAAAAAAAAAAAAAAAAAAAAAAAAAAAAAAAAAAAAAAAAAAAAAAAAAAAAAAAAAAAAAAAAAAAAAAAAAAAAAAAAAAAAAAAAAAAAAAAAAAAAAAAAAAAAAAAAAAAAAAAAAAAAAAAAAAAAAAAAAAAAAAAAAAAAAAAAAAAAAAAAAAAAAAAAAAAAAAAAAAAAAAAAAAAAAAAAAAAAAAAAAAAAAAAAAAAAAAAAAAAAAAAAAAAAAAAAAAAAAAAAAAAAAAAAAAAAAAAAAAAAAAAAAAAAAAAAAAAAAAAAAAAAAAAAAAAAAAAAAAAAAAAAAAAAAAAAAAAAAAAAAAAAAAAAAAAAAAAAAAAAAAAAAAAAAAAAAAAAAAAAAAAAAAAAAAAAAAAAAAAAAAAAAAAAAAAAAAAAAAAAAAAAAAAAAAAAAAAAAAAAAAAAAAAAAAAAAAAAAAAAAAAAAAAAAAAAAAAAAAAAAAAAAAAAAAAAAAAAAAAAAAAAAAAAAAAAAAAAAAAAAAAAAAAAAAAAAAAAAAAAAAAAAAAAAAAAAAAAAAAAAAAAAAAAAAAAAAAAAAAAAAAAAAAAAAAAAAAAAAAAAAAAAAAAAAAAAAAAAAAAAAAAAAAAAAAAAAAAAAAAAAAAAAAAAAAAAAAAAAAAAAAAAAAAAAAAAAAAAAAAAAAAAAAAAAAAAAAAAAAAAAAAAAAAAAAAAAAAAAAAAAAAAAAAAAAAAAAAAAAAAAAAAAAAAAAAAAAAAAAAAAAAAAAAAAAAAAAAAAAAAAAAAAAAAAAAAAAAAAAAAAAAAAAAAAAAAAAAAAAAAAAAAAAAAAAAAAAAAAAAAAAAAAAAAAAAAAAAAAAAAAAAAAAAAAAAAAAAAAAAAAAAAAAAAAAAAAAAAAAAAAAAAAAAAAAAAAAAAAAAAAAAAAAAAAAAAAAAAAAAAAAAAAAAAAAAAAAAAAAAAAAAAAAAAAAAAAAAAAAAAAAAAAAAAAAAAAAAAAAAAAAAAAAAAAAAAAAAAAAAAAAAAAAAAAAAAAAAAAAAAAAAAAAAAAAAAAAAAAAAAAAAAAAAAAAAAAAAAAAAAAAAAAAAAAAAAAAAAAAAAAAAAAAAAAAAAAAAAAAAAAAAAAAAAAAAAAAAAAAAAAAAAAAAAAAAAAAAAAAAAAAAAAAAAAAAAAAAAAAAAAAAAAAAAAAAAAAAAAAAAAAAAAAAAAAAAAAAAAAAAAAAAAAAAAAAAAAAAAAAAAAAAAAAAAAAAAAAAAAAAAAAAAAAAAAAAAAAAAAAAAAAAAAAAAAAAAAAAAAAAAAAAAAAAAAAAAAAAAAAAAAAAAAAAAAAAAAAAAAAAAAAAAAAAAAAAAAAAAAAAAAAAAAAAAAAAAAAAAAAAAAAAAAAAAAAAAAAAAAAAAAAAAAAAAAAAAAAAAAAAAAAAAAAAAAAAAAAAAAAAAAAAAAAAAAAAAAAAAAAAAAAAAAAAAAAAAAAAAAAAAAAAAAAAAAAAAAAAAAAAAAAAAAAAAAAAAAAAAAAAAAAAAAAAAAAAAAAAAAAAAAAAAAAAAAAAAAAAAAAAAAAAAAAAAAAAAAAAAAAAAAAAAAAAAAAAAAAAAAAAAAAAAAAAAAAAAAAAAAAAAAAAAAAAAAAAAAAAAAAAAAAAAAAAAAAAAAAAAAAAAAAAAAAAAAAAAAAAAAAAAAAAAAAAAAAAAAAAAAAAAAAAAAAAAAAAAAAAAAAAAAAAAAAAAAAAAAAAAAAAAAAAAAAAAAAAAAAAAAAAAAAAAAAAAAAAAAAAAAAAAAAAAAAAAAAAAAAAAAAAAAAAAAAAAAAAAAAAAAAAAAAAAAAAAAAAAAAAAAAAAAAAAAAAAAAAAAAAAAAAAAAAAAAAAAAAAAAAAAAAAAAAAAAAAAAAAAAAAAAAAAAAAAAAAAAAAAAAAAAAAAAAAAAAAAAAAAAAAAAAAAAAAAAAAAAAAAAAAAAAAAAAAAAAAAAAAAAAAAAAAAAAAAAAAAAAAAAAAAAAAAAAAAAAAAAAAAAAAAAAAAAAAAAAAAAAAAAAAAAAAAAAAAAAAAAAAAAAAAAAAAAAAAAAAAAAAAAAAAAAAAAAAAAAAAAAAAAAAAAAAAAAAAAAAAAAAAAAAAAAAAAAAAAAAAAAAAAAAAAAAAAAAAAAAAAAAAAAAAAAAAAAAAAAAAAAAAAAAAAAAAAAAAAAAAAAAAAAAAAAAAAAAAAAAAAAAAAAAAAAAAAAAAAAAAAAAAAAAAAAAAAAAAAAAAAAAAAAAAAAAAAAAAAAAAAAAAAAAAAAAAAAAAAAAAAAAAAAAAAAAAAAAAAAAAAAAAAAAAAAAAAAAAAAAAAAAAAAAAAAAAAAAAAAAAAAAAAAAAAAAAAAAAAAAAAAAAAAAAAAAAAAAAAAAAAAAAAAAAAAAAAAAAAAAAAAAAAAAAAAAAAAAAAAAAAAAAAAAAAAAAAAAAAAAAAAAAAAAAAAAAAAAAAAAAAAAAAAAAAAAAAAAAAAAAAAAAAAAAAAAAAAAAAAAAAAAAAAAAAAAAAAAAAAAAAAAAAAAAAAAAAAAAAAAAAAAAAAAAAAAAAAAAAAAAAAAAAAAAAAAAAAAAAAAAAAAAAAAAAAAAAAAAAAAAAAAAAAAAAAAAAAAAAAAAAAAAAAAAAAAAAAAAAAAAAAAAAAAAAAAAAAAAAAAAAAAAAAAAAAAAAAAAAAAAAAAAAAAAAAAAAAAAAAAAAAAAAAAAAAAAAAAAAAAAAAAAAAAAAAAAAAAAAAAAAAAAAAAAAAAAAAAAAAAAAAAAAAAAAAAAAAAAAAAAAAAAAAAAAAAAAAAAAAAAAAAAAAAAAAAAAAAAAAAAAAAAAAAAAAAAAAAAAAAAAAAAAAAAAAAAAAAAAAAAAAAAAAAAAAAAAAAAAAAAAAAAAAAAAAAAAAAAAAAAAAAAAAAAAAAAAAAAAAAAAAAAAAAAAAAAAAAAAAAAAAAAAAAAAAAAAAAAAAAAAAAAAAAAAAAAAAAAAAAAAAAAAAAAAAAAAAAAAAAAAAAAAAAAAAAAAAAAAAAAAAAAAAAAAAAAAAAAAAAAAAAAAAAAAAAAAAAAAAAAAAAAAAAAAAAAAAAAAAAAAAAAAAAAAAAAAAAAAAAAAAAAAAAAAAAAAAAAAAAAAAAAAAAAAAAAAAAAAAAAAAAAAAAAAAAAAAAAAAAAAAAAAAAAAAAAAAAAAAAAAAAAAAAAAAAAAAAAAAAAAAAAAAAAAAAAAAAAAAAAAAAAAAAAAAAAAAAAAAAAAAAAAAAAAAAAAAAAAAAAAAAAAAAAAAAAAAAAAAAAAAAAAAAAAAAAAAAAAAAAAAAAAAAAAAAAAAAAAAAAAAAAAAAAAAAAAAAAAAAAAAAAAAAAAAAAAAAAAAAAAAAAAAAAAAAAAAAAAAAAAAAAAAAAAAAAAAAAAAAAAAAAAAAAAAAAAAAAAAAAAAAAAAAAAAAAAAAAAAAAAAAAAAAAAAAAAAAAAAAAAAAAAAAAAAAAAAAAAAAAAAAAAAAAAAAAAAAAAAAAAAAAAAAAAAAAAAAAAAAAAAAAAAAAAAAAAAAAAAAAAAAAAAAAAAAAAAAAAAAAAAAAAAAAAAAAAAAAAAAAAAAAAAAAAAAAAAAAAAAAAAAAAAAAAAAAAAAAAAAAAAAAAAAAAAAAAAAAAAAAAAAAAAAAAAAAAAAAAAAAAAAAAAAAAAAAAAAAAAAAAAAAAAAAAAAAAAAAAAAAAAAAAAAAAAAAAAAAAAAAAAAAAAAAAAAAAAAAAAAAAAAAAAAAAAAAAAAAAAAAAAAAAAAAAAAAAAAAAAAAAAAAAAAAAAAAAAAAAAAAAAAAAAAAAAAAAAAAAAAAAAAAAAAAAAAAAAAAAAAAAAAAAAAAAAAAAAAAAAAAAAAAAAAAAAAAAAAAAAAAAAAAAAAAAAAAAAAAAAAAAAAAAAAAAAAAAAAAAAAAAAAAAAAAAAAAAAAAAAAAAAAAAAAAAAAAAAAAAAAAAAAAAAAAAAAAAAAAAAAAAAAAAAAAAAAAAAAAAAAAAAAAAAAAAAAAAAAAAAAAAAAAAAAAAAAAAAAAAAAAAAAAAAAAAAAAAAAAAAAAAAAAAAAAAAAAAAAAAAAAAAAAAAAAAAAAAAAAAAAAAAAAAAAAAAAAAAAAAAAAAAAAAAAAAAAAAAAAAAAAAAAAAAAAAAAAAAAAAAAAAAAAAAAAAAAAAAAAAAAAAAAAAAAAAAAAAAAAAAAAAAAAAAAAAAAAAAAAAAAAAAAAAAAAAAAAAAAAAAAAAAAAAAAAAAAAAAAAAAAAAAAAAAAAAAAAAAAAAAAAAAAAAAAAAAAAAAAAAAAAAAAAAAAAAAAAAAAAAAAAAAAAAAAAAAAAAAAAAAAAAAAAAAAAAAAAAAAAAAAAAAAAAAAAAAAAAAAAAAAAAAAAAAAAAAAAAAAAAAAAAAAAAAAAAAAAAAAAAAAAAAAAAAAAAAAAAAAAAAAAAAAAAAAAAAAAAAAAAAAAAAAAAAAAAAAAAAAAAAAAAAAAAAAAAAAAAAAAAAAAAAAAAAAAAAAAAAAAAAAAAAAAAAAAAAAAAAAAAAAAAAAAAAAAAAAAAAAAAAAAAAAAAAAAAAAAAAAAAAAAAAAAAAAAAAAAAAAAAAAAAAAAAAAAAAAAAAAAAAAAAAAAAAPZYQIxZ+rIar+kR5tEqvrUH/J0YFDYUHf/pAb4Xj8zX6BMp/xjyqBny7FdFNzmez0tFdqAIsCBA65p7th68byAwRH4=</c2pa:manifest>
    
  </metadata>
  <metadata>
    
    
  </metadata>
</svg>