<?xml version="1.0"?><svg id="Layer_1" xmlns="http://www.w3.org/2000/svg" version="1.1" viewBox="0 0 333 333" xmlns:c2pa="http://c2pa.org/manifest">
  
  <path d="M139.8,259.7h-72.1c-6.7,0-12.2-5.5-12.2-12.2V89.6c0-6.7,5.5-12.2,12.2-12.2h29.4v-8.6c0-2,1.6-3.6,3.6-3.6h16.2c2.8-6.6,9.2-11.2,16.8-11.2s14,4.6,16.8,11.2h16.2c2,0,3.6,1.6,3.6,3.6v8.6h29.4c6.7,0,12.2,5.5,12.2,12.2v108.1c36.4,2,65.4,32.7,65.4,70.4s-1.6,3.6-3.6,3.6h-55.2c-.2.6-.5,1.1-.8,1.7-2.9,5.3-9.5,7.2-14.8,4.3,0,0,0,0,0,0-2.4-1.4-4.1-3.5-4.9-6h-55.2c-2,0-3.6-1.6-3.6-3.6s.2-5.6.5-8.3h0ZM97.1,84.6h-29.4c-2.7,0-5,2.2-5,5v158c0,2.7,2.2,4.9,5,4.9h73.3c1.5-6.7,3.9-13,7.1-18.9h-8.5c-2,0-3.6-1.6-3.6-3.6s1.6-3.6,3.6-3.6h13.1c2.1-2.9,4.4-5.6,6.9-8.2h-20c-2,0-3.6-1.6-3.6-3.6s1.6-3.6,3.6-3.6h28.3c10.5-7.7,23.2-12.5,36.9-13.2v-108.1c0-2.7-2.2-5-5-5h-29.4v6.5c0,2-1.6,3.6-3.6,3.6h-66.1c-2,0-3.6-1.6-3.6-3.6v-6.5ZM270.1,264.4c-.5-8.8-2.8-17.2-6.5-24.7l-8.7,5.1c2.9,6,4.7,12.6,5.1,19.6h10ZM260.1,233.3c-4.6-7.2-10.6-13.3-17.6-18.1l-5,8.9c5.5,3.8,10.3,8.6,14,14.3l8.7-5.1ZM236.1,211.6c-7.3-3.8-15.5-6.1-24.1-6.6v10.3c6.8.5,13.2,2.3,19,5.2l5.1-8.9ZM218.6,264.4h34.2c-1.8-23.4-21-41.9-44.4-41.9s-42.6,18.5-44.4,41.9h34.1c.2-.6.4-1.1.7-1.7,2.8-5.2,9.1-7.1,14.2-4.6l17.8-17.8c1.4-1.4,3.7-1.4,5.1,0,1.4,1.4,1.4,3.7,0,5.1l-17.9,17.9c.2.3.3.7.4,1h0ZM146.7,264.4h10c.5-7,2.3-13.6,5.1-19.6l-8.7-5.1c-3.7,7.5-6,15.9-6.5,24.7h0ZM204.8,205c-8.6.5-16.8,2.8-24.1,6.6l5.1,8.9c5.8-2.9,12.2-4.7,19-5.2v-10.3ZM174.4,215.3c-7,4.7-13,10.9-17.6,18.1l8.7,5.1c3.7-5.6,8.5-10.5,14-14.3l-5-8.9ZM210.1,264.8h0c-1.7-1-3.8-.3-4.8,1.4-1,1.8-.4,4.1,1.4,5.1,1.7.9,3.8.3,4.8-1.4,0,0,0,0,0,0,1-1.8.4-4.1-1.4-5.1h0ZM104.4,72.4v15.1h58.8v-15.1h-15.2c-1.7,0-3.1-1.1-3.5-2.8-1.2-4.8-5.5-8.4-10.7-8.4s-9.5,3.6-10.7,8.4c-.4,1.6-1.9,2.8-3.5,2.8h-15.2ZM133.8,73.4c-2.1,0-3.9-1.7-3.9-3.9s1.7-3.9,3.9-3.9,3.9,1.7,3.9,3.9-1.7,3.9-3.9,3.9ZM139.6,121.7c-2,0-3.6-1.6-3.6-3.6s1.6-3.6,3.6-3.6h45.9c2,0,3.6,1.6,3.6,3.6s-1.6,3.6-3.6,3.6h-45.9ZM139.6,185.1c-2,0-3.6-1.6-3.6-3.6s1.6-3.6,3.6-3.6h34.6c2,0,3.6,1.6,3.6,3.6s-1.6,3.6-3.6,3.6h-34.6ZM93.1,156.1h17.2c5.1,0,9.3,4.2,9.3,9.3v17.2c0,5.1-4.2,9.3-9.3,9.3h-17.2c-5.1,0-9.3-4.2-9.3-9.3v-17.2c0-5.1,4.2-9.3,9.3-9.3ZM93.1,163.4c-1.1,0-2,.9-2,2v17.2c0,1.1.9,2,2,2h17.2c1.1,0,2-.9,2-2v-17.2c0-1.1-.9-2-2-2h-17.2ZM139.6,137.2c-2,0-3.6-1.6-3.6-3.6s1.6-3.6,3.6-3.6h34.6c2,0,3.6,1.6,3.6,3.6s-1.6,3.6-3.6,3.6h-34.6ZM93.1,107.9h17.2c5.1,0,9.3,4.2,9.3,9.3v17.2c0,5.1-4.2,9.3-9.3,9.3h-17.2c-5.1,0-9.3-4.2-9.3-9.3v-17.2c0-5.1,4.2-9.3,9.3-9.3ZM93.1,115.2c-1.1,0-2,.9-2,2v17.2c0,1.1.9,2,2,2h17.2c1.1,0,2-.9,2-2v-17.2c0-1.1-.9-2-2-2h-17.2ZM139.6,169.6c-2,0-3.6-1.6-3.6-3.6s1.6-3.6,3.6-3.6h45.9c2,0,3.6,1.6,3.6,3.6s-1.6,3.6-3.6,3.6h-45.9ZM93.1,204.4h17.2c5.1,0,9.3,4.2,9.3,9.3v17.2c0,5.1-4.2,9.3-9.3,9.3h-17.2c-5.1,0-9.3-4.2-9.3-9.3v-17.2c0-5.1,4.2-9.3,9.3-9.3ZM93.1,211.6c-1.1,0-2,.9-2,2v17.2c0,1.1.9,2,2,2h17.2c1.1,0,2-.9,2-2v-17.2c0-1.1-.9-2-2-2h-17.2Z" fill="#ea4424" fill-rule="evenodd"></path>
  <metadata><c2pa:manifest>AAAWgmp1bWIAAAAeanVtZGMycGEAEQAQgAAAqgA4m3EDYzJwYQAAABZcanVtYgAAAEdqdW1kYzJtYQARABCAAACqADibcQN1cm46YzJwYTo4ODVjMjJlMS02ZTg1LTQxZWEtYjM3NS0wZGYxMWUzZGVmYzYAAAADl2p1bWIAAAApanVtZGMyYXMAEQAQgAAAqgA4m3EDYzJwYS5hc3NlcnRpb25zAAAAALxqdW1iAAAARGp1bWRjYm9yABEAEIAAAKoAOJtxE2MycGEuaW5ncmVkaWVudC52MwAAAAAYYzJzaDa8uUTTgaZEoSwEpoZQXCYAAABwY2JvcqNpZGM6Zm9ybWF0bWltYWdlL3N2Zyt4bWxqaW5zdGFuY2VJRHgseG1wOmlpZDozYmQxZTc3NC0zYWJiLTQ1YTUtOTA3MC1mZGY1NzRjYjIzMjhscmVsYXRpb25zaGlwaHBhcmVudE9mAAAB4mp1bWIAAABBanVtZGNib3IAEQAQgAAAqgA4m3ETYzJwYS5hY3Rpb25zLnYyAAAAABhjMnNoV6I9KJ+7Ikdd+xkKDkd23AAAAZljYm9yomdhY3Rpb25zgqJmYWN0aW9ua2MycGEub3BlbmVkanBhcmFtZXRlcnOha2luZ3JlZGllbnRzgaJjdXJseC1zZWxmI2p1bWJmPWMycGEuYXNzZXJ0aW9ucy9jMnBhLmluZ3JlZGllbnQudjNkaGFzaFgg+NZEDHA/d5fxcBcnCZ/VXK9ncpf2edOdiXN4HGvlzqKkZmFjdGlvbngdY29tLmFudGhyb3BpYy5jbGF1ZGUucHJvdmlkZWRqcGFyYW1ldGVyc6F4H2NvbS5hbnRocm9waWMub3JpZ2luLWNvbmZpZGVuY2VndW5rbm93bmtkZXNjcmlwdGlvbnhmQ2xhdWRlIHByb3ZpZGVkIHRoaXMgZmlsZSBhdCB0aGUgcmVxdWVzdCBvZiBhIHVzZXIgYW5kIG1heSBoYXZlIGNyZWF0ZWQgb3IgbW9kaWZpZWQgdGhlIGZpbGUgY29udGVudHMubXNvZnR3YXJlQWdlbnShZG5hbWVmQ2xhdWRlcmFsbEFjdGlvbnNJbmNsdWRlZPUAAADIanVtYgAAAEBqdW1kY2JvcgARABCAAACqADibcRNjMnBhLmhhc2guZGF0YQAAAAAYYzJzaOGIgmEHnfLyzUsbecAxpIYAAACAY2JvcqVjYWxnZnNoYTI1NmNwYWRMAAAAAAAAAAAAAAAAZGhhc2hYIDsEyQ1KeM3eo58zMj3bZX6nvFB3OWagSGDFdA3cYJspZG5hbWVuanVtYmYgbWFuaWZlc3RqZXhjbHVzaW9uc4GiZXN0YXJ0GQuVZmxlbmd0aBkeBAAAAj5qdW1iAAAAJ2p1bWRjMmNsABEAEIAAAKoAOJtxA2MycGEuY2xhaW0udjIAAAACD2Nib3KlY2FsZ2ZzaGEyNTZpc2lnbmF0dXJleE1zZWxmI2p1bWJmPS9jMnBhL3VybjpjMnBhOjg4NWMyMmUxLTZlODUtNDFlYS1iMzc1LTBkZjExZTNkZWZjNi9jMnBhLnNpZ25hdHVyZWppbnN0YW5jZUlEeCx4bXA6aWlkOmE1NjJkZDE3LWU0YzktNDJlYS1iZWZmLTIxN2MyY2M5MmI0MXJjcmVhdGVkX2Fzc2VydGlvbnODomN1cmx4LXNlbGYjanVtYmY9YzJwYS5hc3NlcnRpb25zL2MycGEuaW5ncmVkaWVudC52M2RoYXNoWCD41kQMcD93l/FwFycJn9Vcr2dyl/Z5052Jc3gca+XOoqJjdXJseCpzZWxmI2p1bWJmPWMycGEuYXNzZXJ0aW9ucy9jMnBhLmFjdGlvbnMudjJkaGFzaFggVu1NiBW9wNI4ibHNOrb7KFW0VlXa1wV4nG7nU7EDRwaiY3VybHgpc2VsZiNqdW1iZj1jMnBhLmFzc2VydGlvbnMvYzJwYS5oYXNoLmRhdGFkaGFzaFgg31+9/hBOPCPWj6lOzDMzCA0o63AY/t4UC1R/4jqdmWZ0Y2xhaW1fZ2VuZXJhdG9yX2luZm+jZG5hbWVvQW50aHJvcGljIEZpbGVzZ3ZlcnNpb25lMS4wLjBrc3BlY1ZlcnNpb25lMi40LjAAABA4anVtYgAAAChqdW1kYzJjcwARABCAAACqADibcQNjMnBhLnNpZ25hdHVyZQAAABAIY2JvctKEWQISogEmGCFZAgowggIGMIIBjaADAgECAhRA5aAK7sI50L64g/oGQgU9Z1UTADAKBggqhkjOPQQDAzBJMRcwFQYDVQQKEw5BbnRocm9waWMsIFBCQzEuMCwGA1UEAxMlQW50aHJvcGljIENvbnRlbnQgQ3JlZGVudGlhbHMgUm9vdCBDQTAeFw0yNjA4MDcxODQzNTZaFw0yODA4MDYxOTQzNTZaMEQxFzAVBgNVBAoTDkFudGhyb3BpYywgUEJDMSkwJwYDVQQDEyBBbnRocm9waWMgQ2xhdWRlIENvbnRlbnQgU2lnbmluZzBZMBMGByqGSM49AgEGCCqGSM49AwEHA0IABJh6CmvLUBgFFNU0vUKlOVtE6djd17L5SuwX0LemFisBM3dkd/3cyjxFA3Qo5S46fX0/ihY0VZ7mfb9KF703t5OjWDBWMA4GA1UdDwEB/wQEAwIHgDAVBgNVHSUEDjAMBgorBgEEAYPoXgIBMAwGA1UdEwEB/wQCMAAwHwYDVR0jBBgwFoAUzlHiBIFOZFsj+OPEz5o+nMHXXMIwCgYIKoZIzj0EAwMDZwAwZAIwMXMdFJ4BetLLVY7ORuE9noqbbAZOZn/aArXyTwFAZfKrPzxF2vPoJNf1+UCdg1XGAjBwX1zd9WGqYkqmL5SFqw1QySjr1zJfpJM9+1rdDwSPLMOPOjKuiXjoU/pUUeG9RwmhY3BhZFkNngAAAAAAAAAAAAAAAAAAAAAAAAAAAAAAAAAAAAAAAAAAAAAAAAAAAAAAAAAAAAAAAAAAAAAAAAAAAAAAAAAAAAAAAAAAAAAAAAAAAAAAAAAAAAAAAAAAAAAAAAAAAAAAAAAAAAAAAAAAAAAAAAAAAAAAAAAAAAAAAAAAAAAAAAAAAAAAAAAAAAAAAAAAAAAAAAAAAAAAAAAAAAAAAAAAAAAAAAAAAAAAAAAAAAAAAAAAAAAAAAAAAAAAAAAAAAAAAAAAAAAAAAAAAAAAAAAAAAAAAAAAAAAAAAAAAAAAAAAAAAAAAAAAAAAAAAAAAAAAAAAAAAAAAAAAAAAAAAAAAAAAAAAAAAAAAAAAAAAAAAAAAAAAAAAAAAAAAAAAAAAAAAAAAAAAAAAAAAAAAAAAAAAAAAAAAAAAAAAAAAAAAAAAAAAAAAAAAAAAAAAAAAAAAAAAAAAAAAAAAAAAAAAAAAAAAAAAAAAAAAAAAAAAAAAAAAAAAAAAAAAAAAAAAAAAAAAAAAAAAAAAAAAAAAAAAAAAAAAAAAAAAAAAAAAAAAAAAAAAAAAAAAAAAAAAAAAAAAAAAAAAAAAAAAAAAAAAAAAAAAAAAAAAAAAAAAAAAAAAAAAAAAAAAAAAAAAAAAAAAAAAAAAAAAAAAAAAAAAAAAAAAAAAAAAAAAAAAAAAAAAAAAAAAAAAAAAAAAAAAAAAAAAAAAAAAAAAAAAAAAAAAAAAAAAAAAAAAAAAAAAAAAAAAAAAAAAAAAAAAAAAAAAAAAAAAAAAAAAAAAAAAAAAAAAAAAAAAAAAAAAAAAAAAAAAAAAAAAAAAAAAAAAAAAAAAAAAAAAAAAAAAAAAAAAAAAAAAAAAAAAAAAAAAAAAAAAAAAAAAAAAAAAAAAAAAAAAAAAAAAAAAAAAAAAAAAAAAAAAAAAAAAAAAAAAAAAAAAAAAAAAAAAAAAAAAAAAAAAAAAAAAAAAAAAAAAAAAAAAAAAAAAAAAAAAAAAAAAAAAAAAAAAAAAAAAAAAAAAAAAAAAAAAAAAAAAAAAAAAAAAAAAAAAAAAAAAAAAAAAAAAAAAAAAAAAAAAAAAAAAAAAAAAAAAAAAAAAAAAAAAAAAAAAAAAAAAAAAAAAAAAAAAAAAAAAAAAAAAAAAAAAAAAAAAAAAAAAAAAAAAAAAAAAAAAAAAAAAAAAAAAAAAAAAAAAAAAAAAAAAAAAAAAAAAAAAAAAAAAAAAAAAAAAAAAAAAAAAAAAAAAAAAAAAAAAAAAAAAAAAAAAAAAAAAAAAAAAAAAAAAAAAAAAAAAAAAAAAAAAAAAAAAAAAAAAAAAAAAAAAAAAAAAAAAAAAAAAAAAAAAAAAAAAAAAAAAAAAAAAAAAAAAAAAAAAAAAAAAAAAAAAAAAAAAAAAAAAAAAAAAAAAAAAAAAAAAAAAAAAAAAAAAAAAAAAAAAAAAAAAAAAAAAAAAAAAAAAAAAAAAAAAAAAAAAAAAAAAAAAAAAAAAAAAAAAAAAAAAAAAAAAAAAAAAAAAAAAAAAAAAAAAAAAAAAAAAAAAAAAAAAAAAAAAAAAAAAAAAAAAAAAAAAAAAAAAAAAAAAAAAAAAAAAAAAAAAAAAAAAAAAAAAAAAAAAAAAAAAAAAAAAAAAAAAAAAAAAAAAAAAAAAAAAAAAAAAAAAAAAAAAAAAAAAAAAAAAAAAAAAAAAAAAAAAAAAAAAAAAAAAAAAAAAAAAAAAAAAAAAAAAAAAAAAAAAAAAAAAAAAAAAAAAAAAAAAAAAAAAAAAAAAAAAAAAAAAAAAAAAAAAAAAAAAAAAAAAAAAAAAAAAAAAAAAAAAAAAAAAAAAAAAAAAAAAAAAAAAAAAAAAAAAAAAAAAAAAAAAAAAAAAAAAAAAAAAAAAAAAAAAAAAAAAAAAAAAAAAAAAAAAAAAAAAAAAAAAAAAAAAAAAAAAAAAAAAAAAAAAAAAAAAAAAAAAAAAAAAAAAAAAAAAAAAAAAAAAAAAAAAAAAAAAAAAAAAAAAAAAAAAAAAAAAAAAAAAAAAAAAAAAAAAAAAAAAAAAAAAAAAAAAAAAAAAAAAAAAAAAAAAAAAAAAAAAAAAAAAAAAAAAAAAAAAAAAAAAAAAAAAAAAAAAAAAAAAAAAAAAAAAAAAAAAAAAAAAAAAAAAAAAAAAAAAAAAAAAAAAAAAAAAAAAAAAAAAAAAAAAAAAAAAAAAAAAAAAAAAAAAAAAAAAAAAAAAAAAAAAAAAAAAAAAAAAAAAAAAAAAAAAAAAAAAAAAAAAAAAAAAAAAAAAAAAAAAAAAAAAAAAAAAAAAAAAAAAAAAAAAAAAAAAAAAAAAAAAAAAAAAAAAAAAAAAAAAAAAAAAAAAAAAAAAAAAAAAAAAAAAAAAAAAAAAAAAAAAAAAAAAAAAAAAAAAAAAAAAAAAAAAAAAAAAAAAAAAAAAAAAAAAAAAAAAAAAAAAAAAAAAAAAAAAAAAAAAAAAAAAAAAAAAAAAAAAAAAAAAAAAAAAAAAAAAAAAAAAAAAAAAAAAAAAAAAAAAAAAAAAAAAAAAAAAAAAAAAAAAAAAAAAAAAAAAAAAAAAAAAAAAAAAAAAAAAAAAAAAAAAAAAAAAAAAAAAAAAAAAAAAAAAAAAAAAAAAAAAAAAAAAAAAAAAAAAAAAAAAAAAAAAAAAAAAAAAAAAAAAAAAAAAAAAAAAAAAAAAAAAAAAAAAAAAAAAAAAAAAAAAAAAAAAAAAAAAAAAAAAAAAAAAAAAAAAAAAAAAAAAAAAAAAAAAAAAAAAAAAAAAAAAAAAAAAAAAAAAAAAAAAAAAAAAAAAAAAAAAAAAAAAAAAAAAAAAAAAAAAAAAAAAAAAAAAAAAAAAAAAAAAAAAAAAAAAAAAAAAAAAAAAAAAAAAAAAAAAAAAAAAAAAAAAAAAAAAAAAAAAAAAAAAAAAAAAAAAAAAAAAAAAAAAAAAAAAAAAAAAAAAAAAAAAAAAAAAAAAAAAAAAAAAAAAAAAAAAAAAAAAAAAAAAAAAAAAAAAAAAAAAAAAAAAAAAAAAAAAAAAAAAAAAAAAAAAAAAAAAAAAAAAAAAAAAAAAAAAAAAAAAAAAAAAAAAAAAAAAAAAAAAAAAAAAAAAAAAAAAAAAAAAAAAAAAAAAAAAAAAAAAAAAAAAAAAAAAAAAAAAAAAAAAAAAAAAAAAAAAAAAAAAAAAAAAAAAAAAAAAAAAAAAAAAAAAAAAAAAAAAAAAAAAAAAAAAAAAAAAAAAAAAAAAAAAAAAAAAAAAAAAAAAAAAAAAAAAAAAAAAAAAAAAAAAAAAAAAAAAAAAAAAAAAAAAAAAAAAAAAAAAAAAAAAAAAAAAAAAAAAAAAAAAAAAAAAAAAAAAAAAAAAAAAAAAAAAAAAAAAAAAAAAAAAAAAAAAAAAAAAAAAAAAAAAAAAAAAAAAAAAAAAAAAAAAAAAAAAAAAAAAAAAAAAAAAAAAAAAAAAAAAAAAAAAAAAAAAAAAAAAAAAAAAAAAAAAAAAAAAAAAAAAAAAAAAAAAAAAAAAAAAAAAAAAAAAAAAAAAAAAAAAAAAAAAAAAAAAAAAAAAAAAAAAAAAAAAAAAAAAAAAAAAAAAAAAAAAAAAAAAAAAAAAAAAAAAAAAAAAAAAAAAAAAAAAAAAAAAAAAAAAAAAAAAAAAAAAAAAAAAAAAAAAAAAAAAAAAAAAAAAAAAAAAAAAAAAAAAAAAAAAAAAAAAAAAAAAAAAAAAAAAAAAAAAAAAAAAAAAAAAAAAAAAAAAAAAAAAAAAAAAAAAAAAAAAAAAAAAAAAAAAAAAAAAAAAAAAAAAAAAAAAAAAAAAAAAAAAAAAAAAAAAAAAAAAAAAAAAAAAAAAAAAAAAAAAAAAAAAAAAAAAAAAAAAAAAAAAAAAAAAAAAAAAAAAAAAAAAAAAAAAAAAAAAAAAAAAAAAAAAAAAAAAAAAAAAAAAAAAAAAAAAAAAAAAAAAAAAAAAAAAAAAAAAAAAAAAAAAAAAAAAAAAAAAAAAAAAAAAAAAAAAAAAAAAAAAAAAAAAAAAAAAAAAAAAAAAAAAAAAAAAAAAAAAAAAAAAAAAAAAAAAAAAAAAAAAAAAAAAAAAAAAAAAAAAAAAAAAAAAAAAAAAAAAAAAAAAAAAAAAAAAAAAAAAAAAAAAAAAAAAAAAAAAAAAAAAAAAAAAAAAAAAAAAAAAAAAAAAAAAAAAAAAAAAAAAAAAAAAAAAAAAAAAAAAAAAAAAAAAAAAAAAAAAAAAAAAAAAAAAAAAAAAAAAAAAAAAAAAAAAAAAAAAAAAAAAAAAAAAAAAAAAAAAAAAAAAAAAAAAAAAAAAAAAAAAAAAAAAAAAAAAAAAAAAAAAAAAAAAAAAAAAAAAAAAAAAAAAAAAAAAAAAAAAAAAAAAAAAAAAAAAAAAAAAAAAAAAAAAAAAAAAAAAAAAAAAAAAAAAAAAAAAAAAAAAAAAAAAAAAAAAAAAAAAAAAAAAAAAAAAAAAAAAAAAAAAAAAAAAAAAAAAAAAAAAAAAAAAAAAAAAAAAAAAAAAAAAAAAAAAAAAAAAAAAAAAAAAAAAAAAAAAAAAAAAAAAAAAAAAAAAAAAAAAAAAAAAAAAAAAAAAAAAAAAAAAAAAAAAAAAAAAAAAAAAAAAAAAAAAAAAAAAAAAAAAAAAAAAAAAAAAAAAAAAAAAAAAAAAAAAAAAAAAPZYQPwL8T1cKFHzce6tZqofstqZADlGgzxsGxrEZ3oBFzeGRyLtazhA2AMzha4D5SFhnklDPutxmMb7QQL1t8rJ3kc=</c2pa:manifest>
    
  </metadata>
  <metadata>
    
    
  </metadata>
</svg>