<?xml version="1.0"?><svg id="Layer_1" xmlns="http://www.w3.org/2000/svg" version="1.1" viewBox="0 0 333 333" xmlns:c2pa="http://c2pa.org/manifest">
  
  <path d="M277,214.3l-24.3-62c-1.5-3.8-5.8-5.7-9.7-4.2l-14.1,5.5c-1.8.7-3.3,2.1-4.1,4s-.8,3.9-.1,5.7l.5,1.2-.9.5c-2.3,1.2-4.7,1.3-7.1.4l-26.6-10.7c-6.6-2.6-13.3-2.2-19.6,1.1l-2.4,1.3-5.6-3c-6.4-3.5-13.1-4.1-20-2-2,.6-4.1,1.3-6.1,2-9.7,3.3-18.8,6.4-29,3.7l.5-1.2c.7-1.8.7-3.9-.1-5.7-.8-1.8-2.3-3.2-4.1-4l-14.1-5.5c-3.8-1.5-8.2.4-9.7,4.2l-24.3,62c-1.5,3.8.4,8.2,4.2,9.7l14.1,5.5c.9.4,1.8.5,2.7.5,2.7,0,5.3-1.5,6.6-4.1l7.6,5.3-2.7,4.7c-3.2,5.5-1.3,12.6,4.2,15.7,1.8,1,3.8,1.5,5.7,1.5s1,0,1.5-.1c-.4,4.4,1.6,8.8,5.7,11.2l1.4-2.4-1.4,2.4c1.8,1,3.7,1.5,5.7,1.5,1,0,2-.1,3-.4.7-.2,1.4-.4,2-.7.8,2.9,2.7,5.3,5.3,6.9,1.8,1,3.8,1.5,5.7,1.5s3.2-.4,4.7-1c0,0,0,0,0,0,.8,3,2.7,5.5,5.4,7,1.8,1,3.8,1.5,5.7,1.5,4,0,7.9-2.1,10-5.8l.4-.7,11.4,7.9c2,1.4,4.2,2,6.4,2,3.6,0,7.2-1.7,9.4-4.9,1.2-1.8,1.9-3.8,2-5.9,1.7.8,3.5,1.2,5.3,1.2s1.5,0,2.3-.2c3.3-.6,6.2-2.4,8.1-5.2,1.6-2.2,2.3-4.8,2.2-7.4,1.5.6,3,.9,4.6.9,4,0,7.9-1.9,10.3-5.4,1.5-2.2,2.3-4.7,2.2-7.3,1.6.7,3.2,1,4.9,1,4,0,7.9-1.9,10.3-5.4,1.9-2.7,2.6-6.1,2-9.4,0-.4-.2-.9-.3-1.3l13-5.9,1.2,3c1.2,2.9,4,4.7,6.9,4.7s1.8-.2,2.7-.5l14.1-5.5c3.8-1.5,5.7-5.8,4.2-9.7h0ZM76.4,217.7l-14.1-5.5c-1-.4-1.5-1.5-1.1-2.5l24.3-62c.3-.8,1-1.2,1.8-1.2s.5,0,.7.1l14.1,5.5c.5.2.8.5,1.1,1s.2,1,0,1.5l-24.3,62c-.4,1-1.5,1.5-2.5,1.1ZM95.6,240.3c-2.9-1.7-3.8-5.3-2.2-8.2l6.6-11.4c.8-1.4,2.1-2.4,3.6-2.8s3.2-.2,4.5.6c2.9,1.7,3.8,5.3,2.2,8.2l-6.6,11.4c-.8,1.4-2.1,2.4-3.6,2.8-1.5.4-3.2.2-4.5-.6h0ZM108.5,252.9c-2.9-1.7-3.8-5.3-2.2-8.2l2.2-3.8,6.6-11.4,4.6-7.9c1.1-1.9,3.1-3,5.2-3s2,.3,3,.8c1.4.8,2.4,2.1,2.8,3.6s.2,3.2-.6,4.5l-13.4,23.2c-1.6,2.9-5.3,3.8-8.2,2.2h0ZM129.1,260.7c-1.6.4-3.2.2-4.5-.6s-2.4-2.1-2.8-3.6-.2-3.2.6-4.5l7.9-13.7c.8-1.4,2.1-2.4,3.6-2.8s3.2-.2,4.5.6,2.4,2.1,2.8,3.6.2,3.2-.6,4.5l-7.9,13.7c-.8,1.4-2.1,2.4-3.6,2.8ZM140.4,267.7c-1.4-.8-2.4-2.1-2.8-3.6s-.2-3.2.6-4.5l5.2-9c.8-1.4,2.1-2.4,3.6-2.8s3.2-.2,4.5.6c2.9,1.7,3.8,5.3,2.2,8.2l-5.2,9c-1.7,2.9-5.3,3.8-8.2,2.2ZM176.4,269.5c-1.8,2.6-5.5,3.3-8.1,1.5l-11.8-8.1,2-3.5c1.5-2.7,1.9-5.7,1.2-8.5l15.2,10.5c1.3.9,2.1,2.2,2.4,3.8.3,1.5,0,3.1-.9,4.4h0ZM228.6,235.7c-2.2,3.2-6.6,4-9.7,1.8l-35.3-24.4c-1.3-.9-3-.6-3.8.7-.9,1.3-.6,3,.7,3.8l29,20c1.5,1.1,2.6,2.7,2.9,4.5s0,3.7-1.1,5.2c-2.2,3.2-6.6,4-9.7,1.8l-35.5-24.5c-1.3-.9-3-.6-3.8.7-.9,1.3-.6,3,.7,3.8l29.4,20.3c3.2,2.2,4,6.6,1.8,9.7-1.1,1.5-2.7,2.6-4.5,2.9-1.8.3-3.7,0-5.2-1.1l-27.6-19c-1.3-.9-3-.6-3.8.7,0,0,0,0,0,0-1.9-.8-3.9-1-5.9-.7.1-1.3,0-2.6-.4-3.9-.8-3-2.7-5.5-5.4-7-1.9-1.1-3.9-1.6-6.1-1.5,1.3-2.5,1.6-5.4.9-8.2-.8-3-2.7-5.5-5.4-7-5.3-3.1-12-1.4-15.4,3.6-1-1.8-2.5-3.4-4.4-4.5-5.5-3.2-12.6-1.3-15.7,4.2l-1.1,1.9-8.3-5.7,20-51.1c3.4,1,6.7,1.4,9.9,1.4,8.1,0,15.6-2.5,22.9-5,2-.7,4-1.3,6-2,5.4-1.7,10.7-1.2,15.8,1.6l2.4,1.3-25.5,13.9c-6.2,3.4-8.5,11.1-5.1,17.3,2.3,4.2,6.7,6.7,11.2,6.7s4.1-.5,6.1-1.5l19.4-10.6,58,40c1.5,1.1,2.6,2.7,2.9,4.5.3,1.8,0,3.7-1.1,5.2h0ZM232.1,223.4c-.6-.7-1.4-1.4-2.2-1.9l-59.4-41c-.9-.6-2-.6-2.9-.2l-20.9,11.4c-3.5,1.9-7.9.6-9.8-2.9-1.9-3.5-.6-7.9,2.9-9.8l33.8-18.3c4.8-2.6,9.8-2.9,14.9-.9l26.6,10.7c3.9,1.6,8,1.4,11.8-.6l.4-.2,18.6,47.5-13.7,6.2ZM270.8,218.8l-14.1,5.5c-1,.4-2.1-.1-2.5-1.1l-24.3-62c-.2-.5-.2-1,0-1.5s.6-.8,1.1-1l14.1-5.5c1-.4,2.1.1,2.5,1.1l24.3,62c.4,1-.1,2.1-1.1,2.5h0ZM102.6,138.7h12.1c.9,3.2,2,6.3,3.4,9.3.5,1.1,1.7,1.7,2.9,1.5,4.8-.8,9.4-2.4,13.9-4,1.9-.7,3.7-1.3,5.3-1.8.5-.2,1.1-.3,1.6-.5.9-.2,1.5-.8,1.9-1.7.3-.8.2-1.7-.2-2.5-2.7-4.3-4.1-9.2-4.1-14.3,0-14.8,12.1-26.9,26.9-26.9s26.9,12.1,26.9,26.9-1.8,11.3-5.3,16c-.5.7-.7,1.7-.4,2.6.3.9,1,1.5,1.9,1.8,1.4.4,2.8.8,4.1,1.3l15.7,6.3c.3.1.7.2,1,.2,1,0,1.9-.5,2.4-1.4,2.3-4.1,4.1-8.4,5.3-12.9h12.1c3,0,5.5-2.5,5.5-5.5v-16.7c0-3-2.5-5.5-5.5-5.5h-12.1c-1.2-4.5-3-8.9-5.4-12.9l8.6-8.6c2.2-2.2,2.2-5.6,0-7.8l-11.8-11.8c-2.2-2.2-5.6-2.2-7.8,0l-8.6,8.6c-4.1-2.3-8.4-4.2-12.9-5.3v-12.2c0-3-2.5-5.5-5.5-5.5h-16.7c-3,0-5.5,2.5-5.5,5.5v12.1c-4.5,1.2-8.9,3-12.9,5.4l-8.6-8.6c-2.2-2.2-5.6-2.2-7.8,0l-11.8,11.8c-2.2,2.2-2.2,5.6,0,7.8l8.6,8.6c-2.3,4.1-4.2,8.4-5.3,12.9h-12.1c-3,0-5.5,2.5-5.5,5.5v16.7c0,3.1,2.5,5.5,5.5,5.5h0ZM114.8,116.6c2.5,0,4.7-1.6,5.3-4.1,1.1-4.1,2.7-8,4.8-11.6,1.3-2.2.9-4.9-.9-6.7l-8.6-8.6,11.8-11.8,8.6,8.6c1.8,1.8,4.5,2.1,6.7.9,3.6-2.1,7.5-3.7,11.6-4.8,2.4-.7,4.1-2.8,4.1-5.3v-12.1s16.7,0,16.7,0v12.1c0,2.5,1.6,4.7,4.1,5.3,4.1,1.1,8,2.7,11.6,4.8,2.2,1.3,4.9.9,6.7-.9l8.6-8.6,11.8,11.8-8.6,8.6c-1.8,1.8-2.1,4.5-.9,6.7,2.1,3.6,3.7,7.5,4.8,11.6.7,2.4,2.8,4.1,5.3,4.1h12.1s0,16.7,0,16.7h-12.1c-2.5,0-4.7,1.6-5.3,4.1-.9,3.3-2.1,6.4-3.6,9.5l-13.4-5.4c-.4-.2-.8-.3-1.2-.4,2.8-4.9,4.3-10.4,4.3-16.1,0-17.9-14.6-32.5-32.5-32.5s-32.5,14.6-32.5,32.5,1.1,9.7,3.2,14.1c-1.3.4-2.7.9-4,1.4-3.6,1.3-7.3,2.5-10.9,3.3-.9-2.1-1.6-4.2-2.2-6.4-.7-2.4-2.8-4.1-5.3-4.1h-12.1s0-16.7,0-16.7h12.2Z" fill="#ea4424"></path>
  <metadata><c2pa:manifest>AAAWgmp1bWIAAAAeanVtZGMycGEAEQAQgAAAqgA4m3EDYzJwYQAAABZcanVtYgAAAEdqdW1kYzJtYQARABCAAACqADibcQN1cm46YzJwYTozOTQ1ZmQyMC0zYmY1LTQ4M2YtYjI2Zi00MjRjMjVhMDU4MmYAAAADl2p1bWIAAAApanVtZGMyYXMAEQAQgAAAqgA4m3EDYzJwYS5hc3NlcnRpb25zAAAAALxqdW1iAAAARGp1bWRjYm9yABEAEIAAAKoAOJtxE2MycGEuaW5ncmVkaWVudC52MwAAAAAYYzJzaG/cGqMfetTq/YX7yY+ZGOYAAABwY2JvcqNpZGM6Zm9ybWF0bWltYWdlL3N2Zyt4bWxqaW5zdGFuY2VJRHgseG1wOmlpZDphMmQyMTg2ZS1jMmU2LTQ0MGMtYmRlNC02Yjc5MWUyOGM5ZWRscmVsYXRpb25zaGlwaHBhcmVudE9mAAAB4mp1bWIAAABBanVtZGNib3IAEQAQgAAAqgA4m3ETYzJwYS5hY3Rpb25zLnYyAAAAABhjMnNos2yDOxDgeXFbXywDwtalZQAAAZljYm9yomdhY3Rpb25zgqJmYWN0aW9ua2MycGEub3BlbmVkanBhcmFtZXRlcnOha2luZ3JlZGllbnRzgaJjdXJseC1zZWxmI2p1bWJmPWMycGEuYXNzZXJ0aW9ucy9jMnBhLmluZ3JlZGllbnQudjNkaGFzaFggygGQFXOm6R5RWiVMloSp9+DDWptTOIZGfOZNKapEZw2kZmFjdGlvbngdY29tLmFudGhyb3BpYy5jbGF1ZGUucHJvdmlkZWRqcGFyYW1ldGVyc6F4H2NvbS5hbnRocm9waWMub3JpZ2luLWNvbmZpZGVuY2VndW5rbm93bmtkZXNjcmlwdGlvbnhmQ2xhdWRlIHByb3ZpZGVkIHRoaXMgZmlsZSBhdCB0aGUgcmVxdWVzdCBvZiBhIHVzZXIgYW5kIG1heSBoYXZlIGNyZWF0ZWQgb3IgbW9kaWZpZWQgdGhlIGZpbGUgY29udGVudHMubXNvZnR3YXJlQWdlbnShZG5hbWVmQ2xhdWRlcmFsbEFjdGlvbnNJbmNsdWRlZPUAAADIanVtYgAAAEBqdW1kY2JvcgARABCAAACqADibcRNjMnBhLmhhc2guZGF0YQAAAAAYYzJzaLaBcmP8rRoD2a42nkONV/UAAACAY2JvcqVjYWxnZnNoYTI1NmNwYWRMAAAAAAAAAAAAAAAAZGhhc2hYIGqhMq+TeLi4dydTiLyWyElNS/wbTuxUQyYZMSBgwz9xZG5hbWVuanVtYmYgbWFuaWZlc3RqZXhjbHVzaW9uc4GiZXN0YXJ0GRLSZmxlbmd0aBkeBAAAAj5qdW1iAAAAJ2p1bWRjMmNsABEAEIAAAKoAOJtxA2MycGEuY2xhaW0udjIAAAACD2Nib3KlY2FsZ2ZzaGEyNTZpc2lnbmF0dXJleE1zZWxmI2p1bWJmPS9jMnBhL3VybjpjMnBhOjM5NDVmZDIwLTNiZjUtNDgzZi1iMjZmLTQyNGMyNWEwNTgyZi9jMnBhLnNpZ25hdHVyZWppbnN0YW5jZUlEeCx4bXA6aWlkOjc3MjUxZDgzLTJjY2UtNDA0YS1iYThhLTk0NDI4NTNiOTY3YXJjcmVhdGVkX2Fzc2VydGlvbnODomN1cmx4LXNlbGYjanVtYmY9YzJwYS5hc3NlcnRpb25zL2MycGEuaW5ncmVkaWVudC52M2RoYXNoWCDKAZAVc6bpHlFaJUyWhKn34MNam1M4hkZ85k0pqkRnDaJjdXJseCpzZWxmI2p1bWJmPWMycGEuYXNzZXJ0aW9ucy9jMnBhLmFjdGlvbnMudjJkaGFzaFgglwyYapkQDfLjHlIiEBRw3a0pFxGA45XgwjFrwtQuMLOiY3VybHgpc2VsZiNqdW1iZj1jMnBhLmFzc2VydGlvbnMvYzJwYS5oYXNoLmRhdGFkaGFzaFggImxt4K/63qbOp2IqPMtPUbLa5tFFmrVsBz2yucZRJoJ0Y2xhaW1fZ2VuZXJhdG9yX2luZm+jZG5hbWVvQW50aHJvcGljIEZpbGVzZ3ZlcnNpb25lMS4wLjBrc3BlY1ZlcnNpb25lMi40LjAAABA4anVtYgAAAChqdW1kYzJjcwARABCAAACqADibcQNjMnBhLnNpZ25hdHVyZQAAABAIY2JvctKEWQISogEmGCFZAgowggIGMIIBjaADAgECAhRA5aAK7sI50L64g/oGQgU9Z1UTADAKBggqhkjOPQQDAzBJMRcwFQYDVQQKEw5BbnRocm9waWMsIFBCQzEuMCwGA1UEAxMlQW50aHJvcGljIENvbnRlbnQgQ3JlZGVudGlhbHMgUm9vdCBDQTAeFw0yNjA4MDcxODQzNTZaFw0yODA4MDYxOTQzNTZaMEQxFzAVBgNVBAoTDkFudGhyb3BpYywgUEJDMSkwJwYDVQQDEyBBbnRocm9waWMgQ2xhdWRlIENvbnRlbnQgU2lnbmluZzBZMBMGByqGSM49AgEGCCqGSM49AwEHA0IABJh6CmvLUBgFFNU0vUKlOVtE6djd17L5SuwX0LemFisBM3dkd/3cyjxFA3Qo5S46fX0/ihY0VZ7mfb9KF703t5OjWDBWMA4GA1UdDwEB/wQEAwIHgDAVBgNVHSUEDjAMBgorBgEEAYPoXgIBMAwGA1UdEwEB/wQCMAAwHwYDVR0jBBgwFoAUzlHiBIFOZFsj+OPEz5o+nMHXXMIwCgYIKoZIzj0EAwMDZwAwZAIwMXMdFJ4BetLLVY7ORuE9noqbbAZOZn/aArXyTwFAZfKrPzxF2vPoJNf1+UCdg1XGAjBwX1zd9WGqYkqmL5SFqw1QySjr1zJfpJM9+1rdDwSPLMOPOjKuiXjoU/pUUeG9RwmhY3BhZFkNngAAAAAAAAAAAAAAAAAAAAAAAAAAAAAAAAAAAAAAAAAAAAAAAAAAAAAAAAAAAAAAAAAAAAAAAAAAAAAAAAAAAAAAAAAAAAAAAAAAAAAAAAAAAAAAAAAAAAAAAAAAAAAAAAAAAAAAAAAAAAAAAAAAAAAAAAAAAAAAAAAAAAAAAAAAAAAAAAAAAAAAAAAAAAAAAAAAAAAAAAAAAAAAAAAAAAAAAAAAAAAAAAAAAAAAAAAAAAAAAAAAAAAAAAAAAAAAAAAAAAAAAAAAAAAAAAAAAAAAAAAAAAAAAAAAAAAAAAAAAAAAAAAAAAAAAAAAAAAAAAAAAAAAAAAAAAAAAAAAAAAAAAAAAAAAAAAAAAAAAAAAAAAAAAAAAAAAAAAAAAAAAAAAAAAAAAAAAAAAAAAAAAAAAAAAAAAAAAAAAAAAAAAAAAAAAAAAAAAAAAAAAAAAAAAAAAAAAAAAAAAAAAAAAAAAAAAAAAAAAAAAAAAAAAAAAAAAAAAAAAAAAAAAAAAAAAAAAAAAAAAAAAAAAAAAAAAAAAAAAAAAAAAAAAAAAAAAAAAAAAAAAAAAAAAAAAAAAAAAAAAAAAAAAAAAAAAAAAAAAAAAAAAAAAAAAAAAAAAAAAAAAAAAAAAAAAAAAAAAAAAAAAAAAAAAAAAAAAAAAAAAAAAAAAAAAAAAAAAAAAAAAAAAAAAAAAAAAAAAAAAAAAAAAAAAAAAAAAAAAAAAAAAAAAAAAAAAAAAAAAAAAAAAAAAAAAAAAAAAAAAAAAAAAAAAAAAAAAAAAAAAAAAAAAAAAAAAAAAAAAAAAAAAAAAAAAAAAAAAAAAAAAAAAAAAAAAAAAAAAAAAAAAAAAAAAAAAAAAAAAAAAAAAAAAAAAAAAAAAAAAAAAAAAAAAAAAAAAAAAAAAAAAAAAAAAAAAAAAAAAAAAAAAAAAAAAAAAAAAAAAAAAAAAAAAAAAAAAAAAAAAAAAAAAAAAAAAAAAAAAAAAAAAAAAAAAAAAAAAAAAAAAAAAAAAAAAAAAAAAAAAAAAAAAAAAAAAAAAAAAAAAAAAAAAAAAAAAAAAAAAAAAAAAAAAAAAAAAAAAAAAAAAAAAAAAAAAAAAAAAAAAAAAAAAAAAAAAAAAAAAAAAAAAAAAAAAAAAAAAAAAAAAAAAAAAAAAAAAAAAAAAAAAAAAAAAAAAAAAAAAAAAAAAAAAAAAAAAAAAAAAAAAAAAAAAAAAAAAAAAAAAAAAAAAAAAAAAAAAAAAAAAAAAAAAAAAAAAAAAAAAAAAAAAAAAAAAAAAAAAAAAAAAAAAAAAAAAAAAAAAAAAAAAAAAAAAAAAAAAAAAAAAAAAAAAAAAAAAAAAAAAAAAAAAAAAAAAAAAAAAAAAAAAAAAAAAAAAAAAAAAAAAAAAAAAAAAAAAAAAAAAAAAAAAAAAAAAAAAAAAAAAAAAAAAAAAAAAAAAAAAAAAAAAAAAAAAAAAAAAAAAAAAAAAAAAAAAAAAAAAAAAAAAAAAAAAAAAAAAAAAAAAAAAAAAAAAAAAAAAAAAAAAAAAAAAAAAAAAAAAAAAAAAAAAAAAAAAAAAAAAAAAAAAAAAAAAAAAAAAAAAAAAAAAAAAAAAAAAAAAAAAAAAAAAAAAAAAAAAAAAAAAAAAAAAAAAAAAAAAAAAAAAAAAAAAAAAAAAAAAAAAAAAAAAAAAAAAAAAAAAAAAAAAAAAAAAAAAAAAAAAAAAAAAAAAAAAAAAAAAAAAAAAAAAAAAAAAAAAAAAAAAAAAAAAAAAAAAAAAAAAAAAAAAAAAAAAAAAAAAAAAAAAAAAAAAAAAAAAAAAAAAAAAAAAAAAAAAAAAAAAAAAAAAAAAAAAAAAAAAAAAAAAAAAAAAAAAAAAAAAAAAAAAAAAAAAAAAAAAAAAAAAAAAAAAAAAAAAAAAAAAAAAAAAAAAAAAAAAAAAAAAAAAAAAAAAAAAAAAAAAAAAAAAAAAAAAAAAAAAAAAAAAAAAAAAAAAAAAAAAAAAAAAAAAAAAAAAAAAAAAAAAAAAAAAAAAAAAAAAAAAAAAAAAAAAAAAAAAAAAAAAAAAAAAAAAAAAAAAAAAAAAAAAAAAAAAAAAAAAAAAAAAAAAAAAAAAAAAAAAAAAAAAAAAAAAAAAAAAAAAAAAAAAAAAAAAAAAAAAAAAAAAAAAAAAAAAAAAAAAAAAAAAAAAAAAAAAAAAAAAAAAAAAAAAAAAAAAAAAAAAAAAAAAAAAAAAAAAAAAAAAAAAAAAAAAAAAAAAAAAAAAAAAAAAAAAAAAAAAAAAAAAAAAAAAAAAAAAAAAAAAAAAAAAAAAAAAAAAAAAAAAAAAAAAAAAAAAAAAAAAAAAAAAAAAAAAAAAAAAAAAAAAAAAAAAAAAAAAAAAAAAAAAAAAAAAAAAAAAAAAAAAAAAAAAAAAAAAAAAAAAAAAAAAAAAAAAAAAAAAAAAAAAAAAAAAAAAAAAAAAAAAAAAAAAAAAAAAAAAAAAAAAAAAAAAAAAAAAAAAAAAAAAAAAAAAAAAAAAAAAAAAAAAAAAAAAAAAAAAAAAAAAAAAAAAAAAAAAAAAAAAAAAAAAAAAAAAAAAAAAAAAAAAAAAAAAAAAAAAAAAAAAAAAAAAAAAAAAAAAAAAAAAAAAAAAAAAAAAAAAAAAAAAAAAAAAAAAAAAAAAAAAAAAAAAAAAAAAAAAAAAAAAAAAAAAAAAAAAAAAAAAAAAAAAAAAAAAAAAAAAAAAAAAAAAAAAAAAAAAAAAAAAAAAAAAAAAAAAAAAAAAAAAAAAAAAAAAAAAAAAAAAAAAAAAAAAAAAAAAAAAAAAAAAAAAAAAAAAAAAAAAAAAAAAAAAAAAAAAAAAAAAAAAAAAAAAAAAAAAAAAAAAAAAAAAAAAAAAAAAAAAAAAAAAAAAAAAAAAAAAAAAAAAAAAAAAAAAAAAAAAAAAAAAAAAAAAAAAAAAAAAAAAAAAAAAAAAAAAAAAAAAAAAAAAAAAAAAAAAAAAAAAAAAAAAAAAAAAAAAAAAAAAAAAAAAAAAAAAAAAAAAAAAAAAAAAAAAAAAAAAAAAAAAAAAAAAAAAAAAAAAAAAAAAAAAAAAAAAAAAAAAAAAAAAAAAAAAAAAAAAAAAAAAAAAAAAAAAAAAAAAAAAAAAAAAAAAAAAAAAAAAAAAAAAAAAAAAAAAAAAAAAAAAAAAAAAAAAAAAAAAAAAAAAAAAAAAAAAAAAAAAAAAAAAAAAAAAAAAAAAAAAAAAAAAAAAAAAAAAAAAAAAAAAAAAAAAAAAAAAAAAAAAAAAAAAAAAAAAAAAAAAAAAAAAAAAAAAAAAAAAAAAAAAAAAAAAAAAAAAAAAAAAAAAAAAAAAAAAAAAAAAAAAAAAAAAAAAAAAAAAAAAAAAAAAAAAAAAAAAAAAAAAAAAAAAAAAAAAAAAAAAAAAAAAAAAAAAAAAAAAAAAAAAAAAAAAAAAAAAAAAAAAAAAAAAAAAAAAAAAAAAAAAAAAAAAAAAAAAAAAAAAAAAAAAAAAAAAAAAAAAAAAAAAAAAAAAAAAAAAAAAAAAAAAAAAAAAAAAAAAAAAAAAAAAAAAAAAAAAAAAAAAAAAAAAAAAAAAAAAAAAAAAAAAAAAAAAAAAAAAAAAAAAAAAAAAAAAAAAAAAAAAAAAAAAAAAAAAAAAAAAAAAAAAAAAAAAAAAAAAAAAAAAAAAAAAAAAAAAAAAAAAAAAAAAAAAAAAAAAAAAAAAAAAAAAAAAAAAAAAAAAAAAAAAAAAAAAAAAAAAAAAAAAAAAAAAAAAAAAAAAAAAAAAAAAAAAAAAAAAAAAAAAAAAAAAAAAAAAAAAAAAAAAAAAAAAAAAAAAAAAAAAAAAAAAAAAAAAAAAAAAAAAAAAAAAAAAAAAAAAAAAAAAAAAAAAAAAAAAAAAAAAAAAAAAAAAAAAAAAAAAAAAAAAAAAAAAAAAAAAAAAAAAAAAAAAAAAAAAAAAAAAAAAAAAAAAAAAAAAAAAAAAAAAAAAAAAAAAAAAAAAAAAAAAAAAAAAAAAAAAAAAAAAAAAAAAAAAAAAAAAAAAAAAAAAAAAAAAAAAAAAAAAAAAAAAAAAAAAAAAAAAAAAAAAAAAAAAAAAAAAAAAAAAAAAAAAAAAAAAAAAAAAAAAAAAAAAAAAAAAAAAAAAAAAAAAAAAAAAAAAAAAAAAAAAAAAAAAAAAAAAAAAAAAAAAAAAAAAAAAAAAAAAAAAAAAAAAAAAAAAAAAAAAAAAAAAAAAAAAAAAAAAAAAAAAAAAAAAAAAAAAAAAAAAAAAAAAAAAAAAAAAAAAAAAAAAAAAAAAAAAAAAAAAAAAAAAAAAAAAAAAAAAAAAAAAAAAAAAAAAAAAAAAAAAAAAAAAAAAAAAAAAAAAAAAAAAAAAAAAAAAAAAAAAAAAAAAAAAAAAAAAAAAAAAAAAAAAAAAAAAAAAAAAAAAAAAAAAAAAAAAAAAAAAAAAAAAAAAAAAAAAAAAAAAAAAAAAAAAAAAAAAAAAAAAAAAAAAAAAAAAAAAAAAAAAAAAAAAAAAAAAAAAAAAAAAAAAAAAAAAAAAAAAAAAAAAAAAAAAAAAAAAAAAAAAAAAAAAAAAAAAAAAAAAAAAAAAAAAAAAAAAAAAAAAAAAAAAAAAAAAAAAAAAAAAAAAAAAAAAAAAAAAAAAAAAAAAAAAAAAAAAAAAAAAAAAAAAAPZYQPn6pOo9bHP1hkR+aHhZiZceiWMYH9rMmsllpQag7Uer8nsrzHGEUhkeq0t6k1JGht4SQ14apjK9OWCbhknet04=</c2pa:manifest>
    
  </metadata>
  <metadata>
    
    
  </metadata>
</svg>