<?xml version="1.0"?><svg id="Layer_1" xmlns="http://www.w3.org/2000/svg" version="1.1" viewBox="0 0 333 333" xmlns:c2pa="http://c2pa.org/manifest">
  
  <path d="M260.1,207l-20.6-52.5c-1.3-3.2-4.9-4.8-8.2-3.6l-12,4.7c-1.6.6-2.8,1.8-3.5,3.4s-.7,3.3,0,4.8l.4,1-.8.4c-2,1-4,1.1-6,.3l-22.5-9c-5.6-2.2-11.3-1.9-16.6,1l-2.1,1.1-4.7-2.6c-5.4-2.9-11.1-3.5-17-1.7-1.7.5-3.5,1.1-5.2,1.7-8.2,2.8-15.9,5.4-24.6,3.1l.4-1c.6-1.6.6-3.3,0-4.8-.7-1.5-1.9-2.7-3.5-3.4l-12-4.7c-3.2-1.3-6.9.3-8.2,3.6l-20.6,52.5c-1.3,3.2.3,6.9,3.6,8.2l12,4.7c.8.3,1.5.4,2.3.4,2.3,0,4.5-1.3,5.6-3.4l6.4,4.4-2.3,4c-2.7,4.7-1.1,10.6,3.6,13.3,1.5.9,3.2,1.3,4.9,1.3s.9,0,1.3,0c-.4,3.7,1.4,7.5,4.8,9.5l1.2-2-1.2,2c1.5.9,3.2,1.3,4.8,1.3.9,0,1.7-.1,2.6-.3.6-.2,1.1-.4,1.7-.6.7,2.5,2.3,4.5,4.5,5.8,1.5.9,3.2,1.3,4.9,1.3s2.7-.3,4-.9c0,0,0,0,0,0,.7,2.5,2.3,4.6,4.5,5.9,1.5.9,3.2,1.3,4.9,1.3,3.4,0,6.7-1.8,8.5-4.9l.3-.6,9.6,6.7c1.7,1.2,3.6,1.7,5.5,1.7,3.1,0,6.1-1.5,7.9-4.1,1-1.5,1.6-3.2,1.7-5,1.4.7,2.9,1,4.5,1s1.3,0,1.9-.2c2.8-.5,5.2-2.1,6.8-4.4,1.3-1.9,1.9-4.1,1.9-6.2,1.3.5,2.6.7,3.9.7,3.4,0,6.7-1.6,8.7-4.6,1.3-1.8,1.9-4,1.9-6.2,1.3.6,2.7.9,4.1.9,3.4,0,6.7-1.6,8.7-4.6,1.6-2.3,2.2-5.1,1.7-7.9,0-.4-.2-.7-.3-1.1l11-5,1,2.5c1,2.5,3.4,4,5.9,4s1.5-.1,2.3-.4l12-4.7c3.2-1.3,4.8-4.9,3.6-8.2h0ZM90.2,209.9l-12-4.7c-.8-.3-1.2-1.3-.9-2.1l20.6-52.5c.2-.6.9-1,1.5-1s.4,0,.6.1l12,4.7c.4.2.7.5.9.9s.2.8,0,1.2l-20.6,52.5c-.3.8-1.3,1.2-2.1.9ZM106.4,229c-2.4-1.4-3.3-4.5-1.9-6.9l5.6-9.7c.7-1.2,1.8-2,3.1-2.4s2.7-.2,3.8.5c2.4,1.4,3.3,4.5,1.9,6.9l-5.6,9.7c-.7,1.2-1.8,2-3.1,2.4-1.3.4-2.7.2-3.8-.5h0ZM117.4,239.6c-2.4-1.4-3.3-4.5-1.9-6.9l1.9-3.3,5.6-9.7,3.9-6.7c.9-1.6,2.6-2.5,4.4-2.5s1.7.2,2.5.7c1.2.7,2,1.8,2.4,3.1s.2,2.7-.5,3.8l-11.3,19.6c-1.4,2.4-4.5,3.3-6.9,1.9h0ZM134.8,246.3c-1.3.4-2.7.2-3.8-.5s-2-1.8-2.4-3.1-.2-2.7.5-3.8l6.7-11.6c.7-1.2,1.8-2,3.1-2.4s2.7-.2,3.8.5,2,1.8,2.4,3.1.2,2.7-.5,3.8l-6.7,11.6c-.7,1.2-1.8,2-3.1,2.4ZM144.4,252.2c-1.2-.7-2-1.8-2.4-3.1s-.2-2.7.5-3.8l4.4-7.6c.7-1.2,1.8-2,3.1-2.4s2.7-.2,3.8.5c2.4,1.4,3.3,4.5,1.9,6.9l-4.4,7.6c-1.4,2.4-4.5,3.3-6.9,1.9ZM174.9,253.7c-1.5,2.2-4.6,2.8-6.9,1.3l-10-6.9,1.7-3c1.3-2.3,1.6-4.8,1-7.2l12.8,8.9c1.1.7,1.8,1.9,2,3.2.2,1.3,0,2.6-.8,3.7h0ZM219.1,225.1c-1.9,2.7-5.6,3.4-8.2,1.5l-29.9-20.6c-1.1-.7-2.5-.5-3.3.6-.7,1.1-.5,2.5.6,3.3l24.5,16.9c1.3.9,2.2,2.2,2.4,3.8s0,3.1-.9,4.4c-1.9,2.7-5.6,3.4-8.2,1.5l-30-20.7c-1.1-.7-2.5-.5-3.3.6-.7,1.1-.5,2.5.6,3.3l24.9,17.2c2.7,1.9,3.4,5.6,1.5,8.2-.9,1.3-2.3,2.2-3.8,2.5-1.6.3-3.1,0-4.4-.9l-23.4-16.1c-1.1-.7-2.5-.5-3.3.6,0,0,0,0,0,0-1.6-.6-3.3-.8-5-.6,0-1.1,0-2.2-.3-3.3-.7-2.5-2.3-4.6-4.5-5.9-1.6-.9-3.3-1.3-5.1-1.3,1.1-2.1,1.4-4.6.7-7-.7-2.5-2.3-4.6-4.5-5.9-4.5-2.6-10.2-1.2-13,3.1-.8-1.5-2.1-2.9-3.7-3.8-4.7-2.7-10.6-1.1-13.3,3.6l-.9,1.6-7-4.8,17-43.3c2.9.8,5.7,1.2,8.4,1.2,6.8,0,13.2-2.1,19.4-4.2,1.7-.6,3.4-1.1,5.1-1.7,4.6-1.4,9.1-1,13.3,1.3l2,1.1-21.6,11.7c-5.2,2.8-7.2,9.4-4.3,14.6,2,3.6,5.7,5.6,9.5,5.6s3.5-.4,5.1-1.3l16.5-8.9,49.1,33.9c1.3.9,2.2,2.2,2.5,3.8.3,1.6,0,3.1-1,4.4h0ZM222.1,214.6c-.5-.6-1.2-1.1-1.8-1.6l-50.3-34.7c-.7-.5-1.7-.5-2.4-.1l-17.7,9.6c-3,1.6-6.7.5-8.3-2.5-1.6-3-.5-6.7,2.5-8.3l28.6-15.5c4.1-2.2,8.3-2.4,12.6-.7l22.5,9c3.3,1.3,6.8,1.2,10-.5l.3-.2,15.8,40.2-11.6,5.3ZM254.8,210.8l-12,4.7c-.8.3-1.8-.1-2.1-.9l-20.6-52.5c-.2-.4-.1-.8,0-1.2s.5-.7.9-.9l12-4.7c.8-.3,1.8,0,2.1.9l20.6,52.5c.3.8,0,1.8-.9,2.1h0ZM112.4,143h10.3c.7,2.7,1.7,5.3,2.9,7.8.4.9,1.5,1.5,2.5,1.3,4-.7,8-2,11.8-3.4,1.6-.6,3.1-1.1,4.5-1.5.5-.1.9-.3,1.4-.4.7-.2,1.3-.7,1.6-1.4.3-.7.2-1.5-.2-2.1-2.3-3.6-3.5-7.8-3.5-12.1,0-12.6,10.2-22.8,22.8-22.8s22.8,10.2,22.8,22.8-1.5,9.6-4.5,13.5c-.5.6-.6,1.4-.3,2.2.3.7.9,1.3,1.6,1.5,1.2.3,2.3.7,3.5,1.1l13.3,5.3c.3.1.6.2.9.2.8,0,1.6-.4,2-1.2,2-3.4,3.5-7.1,4.5-10.9h10.3c2.6,0,4.7-2.1,4.7-4.7v-14.1c0-2.6-2.1-4.7-4.7-4.7h-10.3c-1-3.8-2.6-7.5-4.5-10.9l7.3-7.3c1.8-1.8,1.8-4.8,0-6.6l-10-10c-1.8-1.8-4.8-1.8-6.6,0l-7.3,7.3c-3.4-2-7.1-3.5-10.9-4.5v-10.3c0-2.6-2.1-4.7-4.7-4.7h-14.1c-2.6,0-4.7,2.1-4.7,4.7v10.3c-3.8,1-7.5,2.6-10.9,4.5l-7.3-7.3c-1.8-1.8-4.8-1.8-6.6,0l-10,10c-1.8,1.8-1.8,4.8,0,6.6l7.3,7.3c-2,3.4-3.5,7.1-4.5,10.9h-10.3c-2.6,0-4.7,2.1-4.7,4.7v14.1c0,2.6,2.1,4.7,4.7,4.7h0ZM122.7,124.2c2.1,0,4-1.4,4.5-3.5.9-3.4,2.3-6.7,4.1-9.8,1.1-1.9.8-4.1-.7-5.6l-7.3-7.3,10-10,7.3,7.3c1.5,1.5,3.8,1.8,5.6.7,3.1-1.8,6.4-3.2,9.8-4.1,2.1-.6,3.5-2.4,3.5-4.5v-10.3s14.1,0,14.1,0v10.3c0,2.1,1.4,4,3.5,4.5,3.4.9,6.7,2.3,9.8,4.1,1.9,1.1,4.1.8,5.6-.7l7.3-7.3,10,10-7.3,7.3c-1.5,1.5-1.8,3.8-.7,5.6,1.8,3.1,3.2,6.4,4.1,9.8.6,2.1,2.4,3.5,4.5,3.5h10.3s0,14.1,0,14.1h-10.3c-2.1,0-4,1.4-4.5,3.5-.7,2.8-1.8,5.5-3.1,8l-11.3-4.5c-.3-.1-.7-.3-1-.4,2.4-4.1,3.6-8.8,3.6-13.6,0-15.2-12.3-27.5-27.5-27.5s-27.5,12.3-27.5,27.5.9,8.2,2.7,11.9c-1.1.4-2.2.8-3.4,1.2-3,1.1-6.2,2.2-9.2,2.8-.7-1.8-1.4-3.6-1.9-5.4-.6-2.1-2.4-3.5-4.5-3.5h-10.3s0-14.1,0-14.1h10.3Z" fill="#ea4424" stroke="#ea4424" stroke-miterlimit="10"></path>
  <metadata><c2pa:manifest>AAAWgmp1bWIAAAAeanVtZGMycGEAEQAQgAAAqgA4m3EDYzJwYQAAABZcanVtYgAAAEdqdW1kYzJtYQARABCAAACqADibcQN1cm46YzJwYTpmNDM1MWYyOS02OWZlLTRjNzctYmYxYy0yNWQzNTk4N2M4MjkAAAADl2p1bWIAAAApanVtZGMyYXMAEQAQgAAAqgA4m3EDYzJwYS5hc3NlcnRpb25zAAAAALxqdW1iAAAARGp1bWRjYm9yABEAEIAAAKoAOJtxE2MycGEuaW5ncmVkaWVudC52MwAAAAAYYzJzaMeMDYS7+5P8S0YhAQGrwDAAAABwY2JvcqNpZGM6Zm9ybWF0bWltYWdlL3N2Zyt4bWxqaW5zdGFuY2VJRHgseG1wOmlpZDo0NDdkMzJlZS0yMzFiLTRhODUtYjIwOS03MDc2YzdkNWMyMzZscmVsYXRpb25zaGlwaHBhcmVudE9mAAAB4mp1bWIAAABBanVtZGNib3IAEQAQgAAAqgA4m3ETYzJwYS5hY3Rpb25zLnYyAAAAABhjMnNocYV7UvGcidP0AwJw2iTuNAAAAZljYm9yomdhY3Rpb25zgqJmYWN0aW9ua2MycGEub3BlbmVkanBhcmFtZXRlcnOha2luZ3JlZGllbnRzgaJjdXJseC1zZWxmI2p1bWJmPWMycGEuYXNzZXJ0aW9ucy9jMnBhLmluZ3JlZGllbnQudjNkaGFzaFggVXec0T2PopMqBHtpzPV+wqhrXxeo3jOfvi7e8rflLhqkZmFjdGlvbngdY29tLmFudGhyb3BpYy5jbGF1ZGUucHJvdmlkZWRqcGFyYW1ldGVyc6F4H2NvbS5hbnRocm9waWMub3JpZ2luLWNvbmZpZGVuY2VndW5rbm93bmtkZXNjcmlwdGlvbnhmQ2xhdWRlIHByb3ZpZGVkIHRoaXMgZmlsZSBhdCB0aGUgcmVxdWVzdCBvZiBhIHVzZXIgYW5kIG1heSBoYXZlIGNyZWF0ZWQgb3IgbW9kaWZpZWQgdGhlIGZpbGUgY29udGVudHMubXNvZnR3YXJlQWdlbnShZG5hbWVmQ2xhdWRlcmFsbEFjdGlvbnNJbmNsdWRlZPUAAADIanVtYgAAAEBqdW1kY2JvcgARABCAAACqADibcRNjMnBhLmhhc2guZGF0YQAAAAAYYzJzaExZcP2j629355q07eYOJ2UAAACAY2JvcqVjYWxnZnNoYTI1NmNwYWRMAAAAAAAAAAAAAAAAZGhhc2hYIDQIIwiJqT0fmFGpKlOMJsCMZArcXWlhYSZH1WWYfni0ZG5hbWVuanVtYmYgbWFuaWZlc3RqZXhjbHVzaW9uc4GiZXN0YXJ0GRK1Zmxlbmd0aBkeBAAAAj5qdW1iAAAAJ2p1bWRjMmNsABEAEIAAAKoAOJtxA2MycGEuY2xhaW0udjIAAAACD2Nib3KlY2FsZ2ZzaGEyNTZpc2lnbmF0dXJleE1zZWxmI2p1bWJmPS9jMnBhL3VybjpjMnBhOmY0MzUxZjI5LTY5ZmUtNGM3Ny1iZjFjLTI1ZDM1OTg3YzgyOS9jMnBhLnNpZ25hdHVyZWppbnN0YW5jZUlEeCx4bXA6aWlkOjk4ZjM3NGQ3LWY1MmUtNDdmNS04OGQwLTRmMjI3OWNmNTNkZnJjcmVhdGVkX2Fzc2VydGlvbnODomN1cmx4LXNlbGYjanVtYmY9YzJwYS5hc3NlcnRpb25zL2MycGEuaW5ncmVkaWVudC52M2RoYXNoWCBVd5zRPY+ikyoEe2nM9X7CqGtfF6jeM5++Lt7yt+UuGqJjdXJseCpzZWxmI2p1bWJmPWMycGEuYXNzZXJ0aW9ucy9jMnBhLmFjdGlvbnMudjJkaGFzaFgg5UqbXBRU1A1m3dvx4AP92r04J2zXAN1oJFVRGW4TnAiiY3VybHgpc2VsZiNqdW1iZj1jMnBhLmFzc2VydGlvbnMvYzJwYS5oYXNoLmRhdGFkaGFzaFggyCssEiri+E+vQhfWztIVEc2kSxsEjjkL/dn0+G7TyWx0Y2xhaW1fZ2VuZXJhdG9yX2luZm+jZG5hbWVvQW50aHJvcGljIEZpbGVzZ3ZlcnNpb25lMS4wLjBrc3BlY1ZlcnNpb25lMi40LjAAABA4anVtYgAAAChqdW1kYzJjcwARABCAAACqADibcQNjMnBhLnNpZ25hdHVyZQAAABAIY2JvctKEWQISogEmGCFZAgowggIGMIIBjaADAgECAhRA5aAK7sI50L64g/oGQgU9Z1UTADAKBggqhkjOPQQDAzBJMRcwFQYDVQQKEw5BbnRocm9waWMsIFBCQzEuMCwGA1UEAxMlQW50aHJvcGljIENvbnRlbnQgQ3JlZGVudGlhbHMgUm9vdCBDQTAeFw0yNjA4MDcxODQzNTZaFw0yODA4MDYxOTQzNTZaMEQxFzAVBgNVBAoTDkFudGhyb3BpYywgUEJDMSkwJwYDVQQDEyBBbnRocm9waWMgQ2xhdWRlIENvbnRlbnQgU2lnbmluZzBZMBMGByqGSM49AgEGCCqGSM49AwEHA0IABJh6CmvLUBgFFNU0vUKlOVtE6djd17L5SuwX0LemFisBM3dkd/3cyjxFA3Qo5S46fX0/ihY0VZ7mfb9KF703t5OjWDBWMA4GA1UdDwEB/wQEAwIHgDAVBgNVHSUEDjAMBgorBgEEAYPoXgIBMAwGA1UdEwEB/wQCMAAwHwYDVR0jBBgwFoAUzlHiBIFOZFsj+OPEz5o+nMHXXMIwCgYIKoZIzj0EAwMDZwAwZAIwMXMdFJ4BetLLVY7ORuE9noqbbAZOZn/aArXyTwFAZfKrPzxF2vPoJNf1+UCdg1XGAjBwX1zd9WGqYkqmL5SFqw1QySjr1zJfpJM9+1rdDwSPLMOPOjKuiXjoU/pUUeG9RwmhY3BhZFkNngAAAAAAAAAAAAAAAAAAAAAAAAAAAAAAAAAAAAAAAAAAAAAAAAAAAAAAAAAAAAAAAAAAAAAAAAAAAAAAAAAAAAAAAAAAAAAAAAAAAAAAAAAAAAAAAAAAAAAAAAAAAAAAAAAAAAAAAAAAAAAAAAAAAAAAAAAAAAAAAAAAAAAAAAAAAAAAAAAAAAAAAAAAAAAAAAAAAAAAAAAAAAAAAAAAAAAAAAAAAAAAAAAAAAAAAAAAAAAAAAAAAAAAAAAAAAAAAAAAAAAAAAAAAAAAAAAAAAAAAAAAAAAAAAAAAAAAAAAAAAAAAAAAAAAAAAAAAAAAAAAAAAAAAAAAAAAAAAAAAAAAAAAAAAAAAAAAAAAAAAAAAAAAAAAAAAAAAAAAAAAAAAAAAAAAAAAAAAAAAAAAAAAAAAAAAAAAAAAAAAAAAAAAAAAAAAAAAAAAAAAAAAAAAAAAAAAAAAAAAAAAAAAAAAAAAAAAAAAAAAAAAAAAAAAAAAAAAAAAAAAAAAAAAAAAAAAAAAAAAAAAAAAAAAAAAAAAAAAAAAAAAAAAAAAAAAAAAAAAAAAAAAAAAAAAAAAAAAAAAAAAAAAAAAAAAAAAAAAAAAAAAAAAAAAAAAAAAAAAAAAAAAAAAAAAAAAAAAAAAAAAAAAAAAAAAAAAAAAAAAAAAAAAAAAAAAAAAAAAAAAAAAAAAAAAAAAAAAAAAAAAAAAAAAAAAAAAAAAAAAAAAAAAAAAAAAAAAAAAAAAAAAAAAAAAAAAAAAAAAAAAAAAAAAAAAAAAAAAAAAAAAAAAAAAAAAAAAAAAAAAAAAAAAAAAAAAAAAAAAAAAAAAAAAAAAAAAAAAAAAAAAAAAAAAAAAAAAAAAAAAAAAAAAAAAAAAAAAAAAAAAAAAAAAAAAAAAAAAAAAAAAAAAAAAAAAAAAAAAAAAAAAAAAAAAAAAAAAAAAAAAAAAAAAAAAAAAAAAAAAAAAAAAAAAAAAAAAAAAAAAAAAAAAAAAAAAAAAAAAAAAAAAAAAAAAAAAAAAAAAAAAAAAAAAAAAAAAAAAAAAAAAAAAAAAAAAAAAAAAAAAAAAAAAAAAAAAAAAAAAAAAAAAAAAAAAAAAAAAAAAAAAAAAAAAAAAAAAAAAAAAAAAAAAAAAAAAAAAAAAAAAAAAAAAAAAAAAAAAAAAAAAAAAAAAAAAAAAAAAAAAAAAAAAAAAAAAAAAAAAAAAAAAAAAAAAAAAAAAAAAAAAAAAAAAAAAAAAAAAAAAAAAAAAAAAAAAAAAAAAAAAAAAAAAAAAAAAAAAAAAAAAAAAAAAAAAAAAAAAAAAAAAAAAAAAAAAAAAAAAAAAAAAAAAAAAAAAAAAAAAAAAAAAAAAAAAAAAAAAAAAAAAAAAAAAAAAAAAAAAAAAAAAAAAAAAAAAAAAAAAAAAAAAAAAAAAAAAAAAAAAAAAAAAAAAAAAAAAAAAAAAAAAAAAAAAAAAAAAAAAAAAAAAAAAAAAAAAAAAAAAAAAAAAAAAAAAAAAAAAAAAAAAAAAAAAAAAAAAAAAAAAAAAAAAAAAAAAAAAAAAAAAAAAAAAAAAAAAAAAAAAAAAAAAAAAAAAAAAAAAAAAAAAAAAAAAAAAAAAAAAAAAAAAAAAAAAAAAAAAAAAAAAAAAAAAAAAAAAAAAAAAAAAAAAAAAAAAAAAAAAAAAAAAAAAAAAAAAAAAAAAAAAAAAAAAAAAAAAAAAAAAAAAAAAAAAAAAAAAAAAAAAAAAAAAAAAAAAAAAAAAAAAAAAAAAAAAAAAAAAAAAAAAAAAAAAAAAAAAAAAAAAAAAAAAAAAAAAAAAAAAAAAAAAAAAAAAAAAAAAAAAAAAAAAAAAAAAAAAAAAAAAAAAAAAAAAAAAAAAAAAAAAAAAAAAAAAAAAAAAAAAAAAAAAAAAAAAAAAAAAAAAAAAAAAAAAAAAAAAAAAAAAAAAAAAAAAAAAAAAAAAAAAAAAAAAAAAAAAAAAAAAAAAAAAAAAAAAAAAAAAAAAAAAAAAAAAAAAAAAAAAAAAAAAAAAAAAAAAAAAAAAAAAAAAAAAAAAAAAAAAAAAAAAAAAAAAAAAAAAAAAAAAAAAAAAAAAAAAAAAAAAAAAAAAAAAAAAAAAAAAAAAAAAAAAAAAAAAAAAAAAAAAAAAAAAAAAAAAAAAAAAAAAAAAAAAAAAAAAAAAAAAAAAAAAAAAAAAAAAAAAAAAAAAAAAAAAAAAAAAAAAAAAAAAAAAAAAAAAAAAAAAAAAAAAAAAAAAAAAAAAAAAAAAAAAAAAAAAAAAAAAAAAAAAAAAAAAAAAAAAAAAAAAAAAAAAAAAAAAAAAAAAAAAAAAAAAAAAAAAAAAAAAAAAAAAAAAAAAAAAAAAAAAAAAAAAAAAAAAAAAAAAAAAAAAAAAAAAAAAAAAAAAAAAAAAAAAAAAAAAAAAAAAAAAAAAAAAAAAAAAAAAAAAAAAAAAAAAAAAAAAAAAAAAAAAAAAAAAAAAAAAAAAAAAAAAAAAAAAAAAAAAAAAAAAAAAAAAAAAAAAAAAAAAAAAAAAAAAAAAAAAAAAAAAAAAAAAAAAAAAAAAAAAAAAAAAAAAAAAAAAAAAAAAAAAAAAAAAAAAAAAAAAAAAAAAAAAAAAAAAAAAAAAAAAAAAAAAAAAAAAAAAAAAAAAAAAAAAAAAAAAAAAAAAAAAAAAAAAAAAAAAAAAAAAAAAAAAAAAAAAAAAAAAAAAAAAAAAAAAAAAAAAAAAAAAAAAAAAAAAAAAAAAAAAAAAAAAAAAAAAAAAAAAAAAAAAAAAAAAAAAAAAAAAAAAAAAAAAAAAAAAAAAAAAAAAAAAAAAAAAAAAAAAAAAAAAAAAAAAAAAAAAAAAAAAAAAAAAAAAAAAAAAAAAAAAAAAAAAAAAAAAAAAAAAAAAAAAAAAAAAAAAAAAAAAAAAAAAAAAAAAAAAAAAAAAAAAAAAAAAAAAAAAAAAAAAAAAAAAAAAAAAAAAAAAAAAAAAAAAAAAAAAAAAAAAAAAAAAAAAAAAAAAAAAAAAAAAAAAAAAAAAAAAAAAAAAAAAAAAAAAAAAAAAAAAAAAAAAAAAAAAAAAAAAAAAAAAAAAAAAAAAAAAAAAAAAAAAAAAAAAAAAAAAAAAAAAAAAAAAAAAAAAAAAAAAAAAAAAAAAAAAAAAAAAAAAAAAAAAAAAAAAAAAAAAAAAAAAAAAAAAAAAAAAAAAAAAAAAAAAAAAAAAAAAAAAAAAAAAAAAAAAAAAAAAAAAAAAAAAAAAAAAAAAAAAAAAAAAAAAAAAAAAAAAAAAAAAAAAAAAAAAAAAAAAAAAAAAAAAAAAAAAAAAAAAAAAAAAAAAAAAAAAAAAAAAAAAAAAAAAAAAAAAAAAAAAAAAAAAAAAAAAAAAAAAAAAAAAAAAAAAAAAAAAAAAAAAAAAAAAAAAAAAAAAAAAAAAAAAAAAAAAAAAAAAAAAAAAAAAAAAAAAAAAAAAAAAAAAAAAAAAAAAAAAAAAAAAAAAAAAAAAAAAAAAAAAAAAAAAAAAAAAAAAAAAAAAAAAAAAAAAAAAAAAAAAAAAAAAAAAAAAAAAAAAAAAAAAAAAAAAAAAAAAAAAAAAAAAAAAAAAAAAAAAAAAAAAAAAAAAAAAAAAAAAAAAAAAAAAAAAAAAAAAAAAAAAAAAAAAAAAAAAAAAAAAAAAAAAAAAAAAAAAAAAAAAAAAAAAAAAAAAAAAAAAAAAAAAAAAAAAAAAAAAAAAAAAAAAAAAAAAAAAAAAAAAAAAAAAAAAAAAAAAAAAAAAAAAAAAAAAAAAAAAAAAAAAAAAAAAAAAAAAAAAAAAAAAAAAAAAAAAAAAAAAAAAAAAAAAAAAAAAAAAAAAAAAAAAAAAAAAAAAAAAAAAAAAAAAAAAAAAAAAAAAAAAAAAAAAAAAAAAAAAAAAAAAAAAAAAAAAAAAAAAAAAAAAAAAAAAAAAAAAAAAAAAAAAAAAAAAAAAAAAAAAAAAAAAAAAAAAAAAAAAAAAAAAAAAAAAAAAAAAAAAAAAAAAAAAAAAAAAAAAAAAAAAAAAAAAAAAAAAAAAAAAAAAAAAAAAAAAAAAAAAAAAAAAAAAAAAAAAAAAAAAAAAAAAAAAAAAAAAAAAAAAAAAAAAAAAAAAAAAAAAAAAAAAAAAAAAAAAAAAAAAAAAAAAAAAAAAAAAAAAAAAAAAAAAAAAAAAAAAAAAAAAAAAAAAAAAAAAAAAAAAAAAAAAAAAAAAAAAAAAAAAAAAAAAAAAAAAAAAAAAAAAAAAAAAAAAAAAAAAAAAAAAAAAAAAAAAAAAAAAAAAAAAAAAAAAAAAAAAAAAAAAAAAAAAAAAAAAAAAAAAAAAAAAAAAAAAAAAAAAAAAAAAAAAAAAAAAAAAAAAAAAAAAAAAAAAAAAAAAAAAAAAAAAAAAAAAAAAAAAAAAAAAAAAAAAAAAAAAAAAAAAAAAAAAAAAAAAAAAAAAAAAAAAAAAAAAAAAAAAAAAAAAAAAAAAAAAAAAAAAAAAAAAAAAAAAAAAAAAAAAAAAAAAAAAAAAAAAAAAAAAAAAAAAAAAAAAAAAAAAAAAAAAAAAAAAAAAAAAAAAAAAAAAAAAAAAAAAAAAAAAAAAAAAAAAAAAAAAAAAAAAAAAAAAAAAAAAAAAAAAAAAAAAAAAAAAAAAAAAAAAAAAAAAAAAAAAAAAAAAAAAAAAAAAPZYQEzQWeroP5r8Q1M+Ky9iddENBcWJNg04R3EzXeLvLofIZKnoJ3Q3539PK1+/Qt+8i2gOd0WiuNIGD5iUHah46G8=</c2pa:manifest>
    
  </metadata>
  <metadata>
    
    
  </metadata>
</svg>